%TF.GenerationSoftware,KiCad,Pcbnew,9.0.8*%
%TF.CreationDate,2026-04-27T14:38:10+01:00*%
%TF.ProjectId,EPM7128 Adapter,45504d37-3132-4382-9041-646170746572,2.1*%
%TF.SameCoordinates,Original*%
%TF.FileFunction,Other,User*%
%FSLAX46Y46*%
G04 Gerber Fmt 4.6, Leading zero omitted, Abs format (unit mm)*
G04 Created by KiCad (PCBNEW 9.0.8) date 2026-04-27 14:38:10*
%MOMM*%
%LPD*%
G01*
G04 APERTURE LIST*
%ADD10C,0.050000*%
G04 APERTURE END LIST*
D10*
%TO.C,C7*%
X91193600Y-113098600D02*
X91193600Y-118848600D01*
X91193600Y-118848600D02*
X94793600Y-118848600D01*
X94793600Y-113098600D02*
X91193600Y-113098600D01*
X94793600Y-118848600D02*
X94793600Y-113098600D01*
%TO.C,C1*%
X104325000Y-144453600D02*
X104325000Y-148053600D01*
X104325000Y-148053600D02*
X110075000Y-148053600D01*
X110075000Y-144453600D02*
X104325000Y-144453600D01*
X110075000Y-148053600D02*
X110075000Y-144453600D01*
%TO.C,C3*%
X86228600Y-127273600D02*
X86228600Y-130873600D01*
X86228600Y-130873600D02*
X91978600Y-130873600D01*
X91978600Y-127273600D02*
X86228600Y-127273600D01*
X91978600Y-130873600D02*
X91978600Y-127273600D01*
%TO.C,C8*%
X114138600Y-132163600D02*
X114138600Y-135763600D01*
X114138600Y-135763600D02*
X119888600Y-135763600D01*
X119888600Y-132163600D02*
X114138600Y-132163600D01*
X119888600Y-135763600D02*
X119888600Y-132163600D01*
%TO.C,C4*%
X76628600Y-153543600D02*
X76628600Y-157143600D01*
X76628600Y-157143600D02*
X82378600Y-157143600D01*
X82378600Y-153543600D02*
X76628600Y-153543600D01*
X82378600Y-157143600D02*
X82378600Y-153543600D01*
%TO.C,C5*%
X101023600Y-157368600D02*
X101023600Y-163118600D01*
X101023600Y-163118600D02*
X104623600Y-163118600D01*
X104623600Y-157368600D02*
X101023600Y-157368600D01*
X104623600Y-163118600D02*
X104623600Y-157368600D01*
%TO.C,C6*%
X77443600Y-135738600D02*
X77443600Y-141488600D01*
X77443600Y-141488600D02*
X81043600Y-141488600D01*
X81043600Y-135738600D02*
X77443600Y-135738600D01*
X81043600Y-141488600D02*
X81043600Y-135738600D01*
%TO.C,C2*%
X103748600Y-126243600D02*
X103748600Y-129843600D01*
X103748600Y-129843600D02*
X109498600Y-129843600D01*
X109498600Y-126243600D02*
X103748600Y-126243600D01*
X109498600Y-129843600D02*
X109498600Y-126243600D01*
%TD*%
M02*
