%TF.GenerationSoftware,KiCad,Pcbnew,9.0.8*%
%TF.CreationDate,2026-04-27T14:38:10+01:00*%
%TF.ProjectId,EPM7128 Adapter,45504d37-3132-4382-9041-646170746572,2.1*%
%TF.SameCoordinates,Original*%
%TF.FileFunction,AssemblyDrawing,Bot*%
%FSLAX46Y46*%
G04 Gerber Fmt 4.6, Leading zero omitted, Abs format (unit mm)*
G04 Created by KiCad (PCBNEW 9.0.8) date 2026-04-27 14:38:10*
%MOMM*%
%LPD*%
G01*
G04 APERTURE LIST*
%ADD10C,0.254000*%
%ADD11C,0.200000*%
G04 APERTURE END LIST*
D10*
X93446965Y-115761933D02*
X93507442Y-115701457D01*
X93507442Y-115701457D02*
X93567918Y-115520028D01*
X93567918Y-115520028D02*
X93567918Y-115399076D01*
X93567918Y-115399076D02*
X93507442Y-115217647D01*
X93507442Y-115217647D02*
X93386489Y-115096695D01*
X93386489Y-115096695D02*
X93265537Y-115036218D01*
X93265537Y-115036218D02*
X93023632Y-114975742D01*
X93023632Y-114975742D02*
X92842203Y-114975742D01*
X92842203Y-114975742D02*
X92600299Y-115036218D01*
X92600299Y-115036218D02*
X92479346Y-115096695D01*
X92479346Y-115096695D02*
X92358394Y-115217647D01*
X92358394Y-115217647D02*
X92297918Y-115399076D01*
X92297918Y-115399076D02*
X92297918Y-115520028D01*
X92297918Y-115520028D02*
X92358394Y-115701457D01*
X92358394Y-115701457D02*
X92418870Y-115761933D01*
X92297918Y-116185266D02*
X92297918Y-117031933D01*
X92297918Y-117031933D02*
X93567918Y-116487647D01*
X107411666Y-146706965D02*
X107472142Y-146767442D01*
X107472142Y-146767442D02*
X107653571Y-146827918D01*
X107653571Y-146827918D02*
X107774523Y-146827918D01*
X107774523Y-146827918D02*
X107955952Y-146767442D01*
X107955952Y-146767442D02*
X108076904Y-146646489D01*
X108076904Y-146646489D02*
X108137381Y-146525537D01*
X108137381Y-146525537D02*
X108197857Y-146283632D01*
X108197857Y-146283632D02*
X108197857Y-146102203D01*
X108197857Y-146102203D02*
X108137381Y-145860299D01*
X108137381Y-145860299D02*
X108076904Y-145739346D01*
X108076904Y-145739346D02*
X107955952Y-145618394D01*
X107955952Y-145618394D02*
X107774523Y-145557918D01*
X107774523Y-145557918D02*
X107653571Y-145557918D01*
X107653571Y-145557918D02*
X107472142Y-145618394D01*
X107472142Y-145618394D02*
X107411666Y-145678870D01*
X106202142Y-146827918D02*
X106927857Y-146827918D01*
X106565000Y-146827918D02*
X106565000Y-145557918D01*
X106565000Y-145557918D02*
X106685952Y-145739346D01*
X106685952Y-145739346D02*
X106806904Y-145860299D01*
X106806904Y-145860299D02*
X106927857Y-145920775D01*
X89315266Y-129526965D02*
X89375742Y-129587442D01*
X89375742Y-129587442D02*
X89557171Y-129647918D01*
X89557171Y-129647918D02*
X89678123Y-129647918D01*
X89678123Y-129647918D02*
X89859552Y-129587442D01*
X89859552Y-129587442D02*
X89980504Y-129466489D01*
X89980504Y-129466489D02*
X90040981Y-129345537D01*
X90040981Y-129345537D02*
X90101457Y-129103632D01*
X90101457Y-129103632D02*
X90101457Y-128922203D01*
X90101457Y-128922203D02*
X90040981Y-128680299D01*
X90040981Y-128680299D02*
X89980504Y-128559346D01*
X89980504Y-128559346D02*
X89859552Y-128438394D01*
X89859552Y-128438394D02*
X89678123Y-128377918D01*
X89678123Y-128377918D02*
X89557171Y-128377918D01*
X89557171Y-128377918D02*
X89375742Y-128438394D01*
X89375742Y-128438394D02*
X89315266Y-128498870D01*
X88891933Y-128377918D02*
X88105742Y-128377918D01*
X88105742Y-128377918D02*
X88529076Y-128861727D01*
X88529076Y-128861727D02*
X88347647Y-128861727D01*
X88347647Y-128861727D02*
X88226695Y-128922203D01*
X88226695Y-128922203D02*
X88166219Y-128982680D01*
X88166219Y-128982680D02*
X88105742Y-129103632D01*
X88105742Y-129103632D02*
X88105742Y-129406013D01*
X88105742Y-129406013D02*
X88166219Y-129526965D01*
X88166219Y-129526965D02*
X88226695Y-129587442D01*
X88226695Y-129587442D02*
X88347647Y-129647918D01*
X88347647Y-129647918D02*
X88710504Y-129647918D01*
X88710504Y-129647918D02*
X88831457Y-129587442D01*
X88831457Y-129587442D02*
X88891933Y-129526965D01*
X117225266Y-134416965D02*
X117285742Y-134477442D01*
X117285742Y-134477442D02*
X117467171Y-134537918D01*
X117467171Y-134537918D02*
X117588123Y-134537918D01*
X117588123Y-134537918D02*
X117769552Y-134477442D01*
X117769552Y-134477442D02*
X117890504Y-134356489D01*
X117890504Y-134356489D02*
X117950981Y-134235537D01*
X117950981Y-134235537D02*
X118011457Y-133993632D01*
X118011457Y-133993632D02*
X118011457Y-133812203D01*
X118011457Y-133812203D02*
X117950981Y-133570299D01*
X117950981Y-133570299D02*
X117890504Y-133449346D01*
X117890504Y-133449346D02*
X117769552Y-133328394D01*
X117769552Y-133328394D02*
X117588123Y-133267918D01*
X117588123Y-133267918D02*
X117467171Y-133267918D01*
X117467171Y-133267918D02*
X117285742Y-133328394D01*
X117285742Y-133328394D02*
X117225266Y-133388870D01*
X116499552Y-133812203D02*
X116620504Y-133751727D01*
X116620504Y-133751727D02*
X116680981Y-133691251D01*
X116680981Y-133691251D02*
X116741457Y-133570299D01*
X116741457Y-133570299D02*
X116741457Y-133509822D01*
X116741457Y-133509822D02*
X116680981Y-133388870D01*
X116680981Y-133388870D02*
X116620504Y-133328394D01*
X116620504Y-133328394D02*
X116499552Y-133267918D01*
X116499552Y-133267918D02*
X116257647Y-133267918D01*
X116257647Y-133267918D02*
X116136695Y-133328394D01*
X116136695Y-133328394D02*
X116076219Y-133388870D01*
X116076219Y-133388870D02*
X116015742Y-133509822D01*
X116015742Y-133509822D02*
X116015742Y-133570299D01*
X116015742Y-133570299D02*
X116076219Y-133691251D01*
X116076219Y-133691251D02*
X116136695Y-133751727D01*
X116136695Y-133751727D02*
X116257647Y-133812203D01*
X116257647Y-133812203D02*
X116499552Y-133812203D01*
X116499552Y-133812203D02*
X116620504Y-133872680D01*
X116620504Y-133872680D02*
X116680981Y-133933156D01*
X116680981Y-133933156D02*
X116741457Y-134054108D01*
X116741457Y-134054108D02*
X116741457Y-134296013D01*
X116741457Y-134296013D02*
X116680981Y-134416965D01*
X116680981Y-134416965D02*
X116620504Y-134477442D01*
X116620504Y-134477442D02*
X116499552Y-134537918D01*
X116499552Y-134537918D02*
X116257647Y-134537918D01*
X116257647Y-134537918D02*
X116136695Y-134477442D01*
X116136695Y-134477442D02*
X116076219Y-134416965D01*
X116076219Y-134416965D02*
X116015742Y-134296013D01*
X116015742Y-134296013D02*
X116015742Y-134054108D01*
X116015742Y-134054108D02*
X116076219Y-133933156D01*
X116076219Y-133933156D02*
X116136695Y-133872680D01*
X116136695Y-133872680D02*
X116257647Y-133812203D01*
X79715266Y-155796965D02*
X79775742Y-155857442D01*
X79775742Y-155857442D02*
X79957171Y-155917918D01*
X79957171Y-155917918D02*
X80078123Y-155917918D01*
X80078123Y-155917918D02*
X80259552Y-155857442D01*
X80259552Y-155857442D02*
X80380504Y-155736489D01*
X80380504Y-155736489D02*
X80440981Y-155615537D01*
X80440981Y-155615537D02*
X80501457Y-155373632D01*
X80501457Y-155373632D02*
X80501457Y-155192203D01*
X80501457Y-155192203D02*
X80440981Y-154950299D01*
X80440981Y-154950299D02*
X80380504Y-154829346D01*
X80380504Y-154829346D02*
X80259552Y-154708394D01*
X80259552Y-154708394D02*
X80078123Y-154647918D01*
X80078123Y-154647918D02*
X79957171Y-154647918D01*
X79957171Y-154647918D02*
X79775742Y-154708394D01*
X79775742Y-154708394D02*
X79715266Y-154768870D01*
X78626695Y-155071251D02*
X78626695Y-155917918D01*
X78929076Y-154587442D02*
X79231457Y-155494584D01*
X79231457Y-155494584D02*
X78445266Y-155494584D01*
X103276965Y-160031933D02*
X103337442Y-159971457D01*
X103337442Y-159971457D02*
X103397918Y-159790028D01*
X103397918Y-159790028D02*
X103397918Y-159669076D01*
X103397918Y-159669076D02*
X103337442Y-159487647D01*
X103337442Y-159487647D02*
X103216489Y-159366695D01*
X103216489Y-159366695D02*
X103095537Y-159306218D01*
X103095537Y-159306218D02*
X102853632Y-159245742D01*
X102853632Y-159245742D02*
X102672203Y-159245742D01*
X102672203Y-159245742D02*
X102430299Y-159306218D01*
X102430299Y-159306218D02*
X102309346Y-159366695D01*
X102309346Y-159366695D02*
X102188394Y-159487647D01*
X102188394Y-159487647D02*
X102127918Y-159669076D01*
X102127918Y-159669076D02*
X102127918Y-159790028D01*
X102127918Y-159790028D02*
X102188394Y-159971457D01*
X102188394Y-159971457D02*
X102248870Y-160031933D01*
X102127918Y-161180980D02*
X102127918Y-160576218D01*
X102127918Y-160576218D02*
X102732680Y-160515742D01*
X102732680Y-160515742D02*
X102672203Y-160576218D01*
X102672203Y-160576218D02*
X102611727Y-160697171D01*
X102611727Y-160697171D02*
X102611727Y-160999552D01*
X102611727Y-160999552D02*
X102672203Y-161120504D01*
X102672203Y-161120504D02*
X102732680Y-161180980D01*
X102732680Y-161180980D02*
X102853632Y-161241457D01*
X102853632Y-161241457D02*
X103156013Y-161241457D01*
X103156013Y-161241457D02*
X103276965Y-161180980D01*
X103276965Y-161180980D02*
X103337442Y-161120504D01*
X103337442Y-161120504D02*
X103397918Y-160999552D01*
X103397918Y-160999552D02*
X103397918Y-160697171D01*
X103397918Y-160697171D02*
X103337442Y-160576218D01*
X103337442Y-160576218D02*
X103276965Y-160515742D01*
X79696965Y-138401933D02*
X79757442Y-138341457D01*
X79757442Y-138341457D02*
X79817918Y-138160028D01*
X79817918Y-138160028D02*
X79817918Y-138039076D01*
X79817918Y-138039076D02*
X79757442Y-137857647D01*
X79757442Y-137857647D02*
X79636489Y-137736695D01*
X79636489Y-137736695D02*
X79515537Y-137676218D01*
X79515537Y-137676218D02*
X79273632Y-137615742D01*
X79273632Y-137615742D02*
X79092203Y-137615742D01*
X79092203Y-137615742D02*
X78850299Y-137676218D01*
X78850299Y-137676218D02*
X78729346Y-137736695D01*
X78729346Y-137736695D02*
X78608394Y-137857647D01*
X78608394Y-137857647D02*
X78547918Y-138039076D01*
X78547918Y-138039076D02*
X78547918Y-138160028D01*
X78547918Y-138160028D02*
X78608394Y-138341457D01*
X78608394Y-138341457D02*
X78668870Y-138401933D01*
X78547918Y-139490504D02*
X78547918Y-139248599D01*
X78547918Y-139248599D02*
X78608394Y-139127647D01*
X78608394Y-139127647D02*
X78668870Y-139067171D01*
X78668870Y-139067171D02*
X78850299Y-138946218D01*
X78850299Y-138946218D02*
X79092203Y-138885742D01*
X79092203Y-138885742D02*
X79576013Y-138885742D01*
X79576013Y-138885742D02*
X79696965Y-138946218D01*
X79696965Y-138946218D02*
X79757442Y-139006695D01*
X79757442Y-139006695D02*
X79817918Y-139127647D01*
X79817918Y-139127647D02*
X79817918Y-139369552D01*
X79817918Y-139369552D02*
X79757442Y-139490504D01*
X79757442Y-139490504D02*
X79696965Y-139550980D01*
X79696965Y-139550980D02*
X79576013Y-139611457D01*
X79576013Y-139611457D02*
X79273632Y-139611457D01*
X79273632Y-139611457D02*
X79152680Y-139550980D01*
X79152680Y-139550980D02*
X79092203Y-139490504D01*
X79092203Y-139490504D02*
X79031727Y-139369552D01*
X79031727Y-139369552D02*
X79031727Y-139127647D01*
X79031727Y-139127647D02*
X79092203Y-139006695D01*
X79092203Y-139006695D02*
X79152680Y-138946218D01*
X79152680Y-138946218D02*
X79273632Y-138885742D01*
X106835266Y-128496965D02*
X106895742Y-128557442D01*
X106895742Y-128557442D02*
X107077171Y-128617918D01*
X107077171Y-128617918D02*
X107198123Y-128617918D01*
X107198123Y-128617918D02*
X107379552Y-128557442D01*
X107379552Y-128557442D02*
X107500504Y-128436489D01*
X107500504Y-128436489D02*
X107560981Y-128315537D01*
X107560981Y-128315537D02*
X107621457Y-128073632D01*
X107621457Y-128073632D02*
X107621457Y-127892203D01*
X107621457Y-127892203D02*
X107560981Y-127650299D01*
X107560981Y-127650299D02*
X107500504Y-127529346D01*
X107500504Y-127529346D02*
X107379552Y-127408394D01*
X107379552Y-127408394D02*
X107198123Y-127347918D01*
X107198123Y-127347918D02*
X107077171Y-127347918D01*
X107077171Y-127347918D02*
X106895742Y-127408394D01*
X106895742Y-127408394D02*
X106835266Y-127468870D01*
X106351457Y-127468870D02*
X106290981Y-127408394D01*
X106290981Y-127408394D02*
X106170028Y-127347918D01*
X106170028Y-127347918D02*
X105867647Y-127347918D01*
X105867647Y-127347918D02*
X105746695Y-127408394D01*
X105746695Y-127408394D02*
X105686219Y-127468870D01*
X105686219Y-127468870D02*
X105625742Y-127589822D01*
X105625742Y-127589822D02*
X105625742Y-127710775D01*
X105625742Y-127710775D02*
X105686219Y-127892203D01*
X105686219Y-127892203D02*
X106411933Y-128617918D01*
X106411933Y-128617918D02*
X105625742Y-128617918D01*
D11*
%TO.C,C7*%
X92193600Y-114373600D02*
X92193600Y-117573600D01*
X92193600Y-117573600D02*
X93793600Y-117573600D01*
X93793600Y-114373600D02*
X92193600Y-114373600D01*
X93793600Y-117573600D02*
X93793600Y-114373600D01*
%TO.C,C1*%
X105600000Y-145453600D02*
X105600000Y-147053600D01*
X105600000Y-147053600D02*
X108800000Y-147053600D01*
X108800000Y-145453600D02*
X105600000Y-145453600D01*
X108800000Y-147053600D02*
X108800000Y-145453600D01*
%TO.C,C3*%
X87503600Y-128273600D02*
X87503600Y-129873600D01*
X87503600Y-129873600D02*
X90703600Y-129873600D01*
X90703600Y-128273600D02*
X87503600Y-128273600D01*
X90703600Y-129873600D02*
X90703600Y-128273600D01*
%TO.C,C8*%
X115413600Y-133163600D02*
X115413600Y-134763600D01*
X115413600Y-134763600D02*
X118613600Y-134763600D01*
X118613600Y-133163600D02*
X115413600Y-133163600D01*
X118613600Y-134763600D02*
X118613600Y-133163600D01*
%TO.C,C4*%
X77903600Y-154543600D02*
X77903600Y-156143600D01*
X77903600Y-156143600D02*
X81103600Y-156143600D01*
X81103600Y-154543600D02*
X77903600Y-154543600D01*
X81103600Y-156143600D02*
X81103600Y-154543600D01*
%TO.C,C5*%
X102023600Y-158643600D02*
X102023600Y-161843600D01*
X102023600Y-161843600D02*
X103623600Y-161843600D01*
X103623600Y-158643600D02*
X102023600Y-158643600D01*
X103623600Y-161843600D02*
X103623600Y-158643600D01*
%TO.C,C6*%
X78443600Y-137013600D02*
X78443600Y-140213600D01*
X78443600Y-140213600D02*
X80043600Y-140213600D01*
X80043600Y-137013600D02*
X78443600Y-137013600D01*
X80043600Y-140213600D02*
X80043600Y-137013600D01*
%TO.C,C2*%
X105023600Y-127243600D02*
X105023600Y-128843600D01*
X105023600Y-128843600D02*
X108223600Y-128843600D01*
X108223600Y-127243600D02*
X105023600Y-127243600D01*
X108223600Y-128843600D02*
X108223600Y-127243600D01*
%TD*%
M02*
