%TF.GenerationSoftware,KiCad,Pcbnew,9.0.8*%
%TF.CreationDate,2026-04-27T14:38:10+01:00*%
%TF.ProjectId,EPM7128 Adapter,45504d37-3132-4382-9041-646170746572,2.1*%
%TF.SameCoordinates,Original*%
%TF.FileFunction,Soldermask,Top*%
%TF.FilePolarity,Negative*%
%FSLAX46Y46*%
G04 Gerber Fmt 4.6, Leading zero omitted, Abs format (unit mm)*
G04 Created by KiCad (PCBNEW 9.0.8) date 2026-04-27 14:38:10*
%MOMM*%
%LPD*%
G01*
G04 APERTURE LIST*
G04 Aperture macros list*
%AMRoundRect*
0 Rectangle with rounded corners*
0 $1 Rounding radius*
0 $2 $3 $4 $5 $6 $7 $8 $9 X,Y pos of 4 corners*
0 Add a 4 corners polygon primitive as box body*
4,1,4,$2,$3,$4,$5,$6,$7,$8,$9,$2,$3,0*
0 Add four circle primitives for the rounded corners*
1,1,$1+$1,$2,$3*
1,1,$1+$1,$4,$5*
1,1,$1+$1,$6,$7*
1,1,$1+$1,$8,$9*
0 Add four rect primitives between the rounded corners*
20,1,$1+$1,$2,$3,$4,$5,0*
20,1,$1+$1,$4,$5,$6,$7,0*
20,1,$1+$1,$6,$7,$8,$9,0*
20,1,$1+$1,$8,$9,$2,$3,0*%
G04 Aperture macros list end*
%ADD10C,1.650000*%
%ADD11R,1.650000X1.650000*%
%ADD12C,2.700000*%
%ADD13RoundRect,0.102000X-0.685000X0.685000X-0.685000X-0.685000X0.685000X-0.685000X0.685000X0.685000X0*%
%ADD14C,1.574000*%
%ADD15R,1.303000X1.303000*%
%ADD16C,1.303000*%
%ADD17RoundRect,0.102000X-0.685000X-0.685000X0.685000X-0.685000X0.685000X0.685000X-0.685000X0.685000X0*%
%ADD18R,1.150000X1.150000*%
%ADD19C,1.150000*%
G04 APERTURE END LIST*
D10*
%TO.C,PLCC84*%
X110500000Y-139059700D03*
X113040000Y-139059700D03*
X110500000Y-141599700D03*
X113040000Y-141599700D03*
X110500000Y-144139700D03*
X113040000Y-144139700D03*
X110500000Y-146679700D03*
X113040000Y-146679700D03*
X110500000Y-149219700D03*
X113040000Y-149219700D03*
X110500000Y-151759700D03*
X107960000Y-149219700D03*
X107960000Y-151759700D03*
X105420000Y-149219700D03*
X105420000Y-151759700D03*
X102880000Y-149219700D03*
X102880000Y-151759700D03*
X100340000Y-149219700D03*
X100340000Y-151759700D03*
X97800000Y-149219700D03*
X97800000Y-151759700D03*
X95260000Y-149219700D03*
X95260000Y-151759700D03*
X92720000Y-149219700D03*
X92720000Y-151759700D03*
X90180000Y-149219700D03*
X90180000Y-151759700D03*
X87640000Y-149219700D03*
X87640000Y-151759700D03*
X85100000Y-149219700D03*
X85100000Y-151759700D03*
X82560000Y-149219700D03*
X85100000Y-146679700D03*
X82560000Y-146679700D03*
X85100000Y-144139700D03*
X82560000Y-144139700D03*
X85100000Y-141599700D03*
X82560000Y-141599700D03*
X85100000Y-139059700D03*
X82560000Y-139059700D03*
X85100000Y-136519700D03*
X82560000Y-136519700D03*
X85100000Y-133979700D03*
X82560000Y-133979700D03*
X85100000Y-131439700D03*
X82560000Y-131439700D03*
X85100000Y-128899700D03*
X82560000Y-128899700D03*
X85100000Y-126359700D03*
X82560000Y-126359700D03*
X85100000Y-123819700D03*
X82560000Y-123819700D03*
X85100000Y-121279700D03*
X87640000Y-123819700D03*
X87640000Y-121279700D03*
X90180000Y-123819700D03*
X90180000Y-121279700D03*
X92720000Y-123819700D03*
X92720000Y-121279700D03*
X95260000Y-123819700D03*
X95260000Y-121279700D03*
X97800000Y-123819700D03*
X97800000Y-121279700D03*
X100340000Y-123819700D03*
X100340000Y-121279700D03*
X102880000Y-123819700D03*
X102880000Y-121279700D03*
X105420000Y-123819700D03*
X105420000Y-121279700D03*
X107960000Y-123819700D03*
X107960000Y-121279700D03*
X110500000Y-123819700D03*
X110500000Y-121279700D03*
X113040000Y-123819700D03*
X110500000Y-126359700D03*
X113040000Y-126359700D03*
X110500000Y-128899700D03*
X113040000Y-128899700D03*
X110500000Y-131439700D03*
X113040000Y-131439700D03*
X110500000Y-133979700D03*
X113040000Y-133979700D03*
X110500000Y-136519700D03*
D11*
X113040000Y-136519700D03*
%TD*%
D12*
%TO.C,UNK_HOLE_3*%
X94125000Y-132709700D03*
%TD*%
%TO.C,UNK_HOLE_1*%
X101745000Y-140329700D03*
%TD*%
D13*
%TO.C,J4*%
X138000000Y-108000000D03*
D14*
X140540000Y-108000000D03*
X143080000Y-108000000D03*
X138000000Y-110540000D03*
X140540000Y-110540000D03*
X143080000Y-110540000D03*
X138000000Y-113080000D03*
X140540000Y-113080000D03*
X143080000Y-113080000D03*
X138000000Y-115620000D03*
X140540000Y-115620000D03*
X143080000Y-115620000D03*
X138000000Y-118160000D03*
X140540000Y-118160000D03*
X143080000Y-118160000D03*
X138000000Y-120700000D03*
X140540000Y-120700000D03*
X143080000Y-120700000D03*
X138000000Y-123240000D03*
X140540000Y-123240000D03*
X143080000Y-123240000D03*
X138000000Y-125780000D03*
X140540000Y-125780000D03*
X143080000Y-125780000D03*
X138000000Y-128320000D03*
X140540000Y-128320000D03*
X143080000Y-128320000D03*
X138000000Y-130860000D03*
X140540000Y-130860000D03*
X143080000Y-130860000D03*
X138000000Y-133400000D03*
X140540000Y-133400000D03*
X143080000Y-133400000D03*
X138000000Y-135940000D03*
X140540000Y-135940000D03*
X143080000Y-135940000D03*
X138000000Y-138480000D03*
X140540000Y-138480000D03*
X143080000Y-138480000D03*
X138000000Y-141020000D03*
X140540000Y-141020000D03*
X143080000Y-141020000D03*
X138000000Y-143560000D03*
X140540000Y-143560000D03*
X143080000Y-143560000D03*
X138000000Y-146100000D03*
X140540000Y-146100000D03*
X143080000Y-146100000D03*
X138000000Y-148640000D03*
X140540000Y-148640000D03*
X143080000Y-148640000D03*
X138000000Y-151180000D03*
X140540000Y-151180000D03*
X143080000Y-151180000D03*
X138000000Y-153720000D03*
X140540000Y-153720000D03*
X143080000Y-153720000D03*
X138000000Y-156260000D03*
X140540000Y-156260000D03*
X143080000Y-156260000D03*
X138000000Y-158800000D03*
X140540000Y-158800000D03*
X143080000Y-158800000D03*
X138000000Y-161340000D03*
X140540000Y-161340000D03*
X143080000Y-161340000D03*
X138000000Y-163880000D03*
X140540000Y-163880000D03*
X143080000Y-163880000D03*
X138000000Y-166420000D03*
X140540000Y-166420000D03*
X143080000Y-166420000D03*
%TD*%
D15*
%TO.C,RA3*%
X87000000Y-170000000D03*
D16*
X89540000Y-170000000D03*
X92080000Y-170000000D03*
X94620000Y-170000000D03*
X97160000Y-170000000D03*
X99700000Y-170000000D03*
X102240000Y-170000000D03*
X104780000Y-170000000D03*
X107320000Y-170000000D03*
X109860000Y-170000000D03*
%TD*%
D12*
%TO.C,UNK_HOLE_0*%
X101745000Y-132709700D03*
%TD*%
%TO.C,H1*%
X79200000Y-113540000D03*
%TD*%
D17*
%TO.C,J1*%
X77730000Y-108000000D03*
D14*
X80270000Y-108000000D03*
%TD*%
D15*
%TO.C,RA1*%
X86000000Y-109000000D03*
D16*
X88540000Y-109000000D03*
X91080000Y-109000000D03*
X93620000Y-109000000D03*
X96160000Y-109000000D03*
X98700000Y-109000000D03*
X101240000Y-109000000D03*
X103780000Y-109000000D03*
X106320000Y-109000000D03*
X108860000Y-109000000D03*
%TD*%
D13*
%TO.C,J3*%
X123000000Y-108000000D03*
D14*
X125540000Y-108000000D03*
X128080000Y-108000000D03*
X123000000Y-110540000D03*
X125540000Y-110540000D03*
X128080000Y-110540000D03*
X123000000Y-113080000D03*
X125540000Y-113080000D03*
X128080000Y-113080000D03*
X123000000Y-115620000D03*
X125540000Y-115620000D03*
X128080000Y-115620000D03*
X123000000Y-118160000D03*
X125540000Y-118160000D03*
X128080000Y-118160000D03*
X123000000Y-120700000D03*
X125540000Y-120700000D03*
X128080000Y-120700000D03*
X123000000Y-123240000D03*
X125540000Y-123240000D03*
X128080000Y-123240000D03*
X123000000Y-125780000D03*
X125540000Y-125780000D03*
X128080000Y-125780000D03*
X123000000Y-128320000D03*
X125540000Y-128320000D03*
X128080000Y-128320000D03*
X123000000Y-130860000D03*
X125540000Y-130860000D03*
X128080000Y-130860000D03*
X123000000Y-133400000D03*
X125540000Y-133400000D03*
X128080000Y-133400000D03*
X123000000Y-135940000D03*
X125540000Y-135940000D03*
X128080000Y-135940000D03*
X123000000Y-138480000D03*
X125540000Y-138480000D03*
X128080000Y-138480000D03*
X123000000Y-141020000D03*
X125540000Y-141020000D03*
X128080000Y-141020000D03*
X123000000Y-143560000D03*
X125540000Y-143560000D03*
X128080000Y-143560000D03*
X123000000Y-146100000D03*
X125540000Y-146100000D03*
X128080000Y-146100000D03*
X123000000Y-148640000D03*
X125540000Y-148640000D03*
X128080000Y-148640000D03*
X123000000Y-151180000D03*
X125540000Y-151180000D03*
X128080000Y-151180000D03*
X123000000Y-153720000D03*
X125540000Y-153720000D03*
X128080000Y-153720000D03*
X123000000Y-156260000D03*
X125540000Y-156260000D03*
X128080000Y-156260000D03*
X123000000Y-158800000D03*
X125540000Y-158800000D03*
X128080000Y-158800000D03*
X123000000Y-161340000D03*
X125540000Y-161340000D03*
X128080000Y-161340000D03*
X123000000Y-163880000D03*
X125540000Y-163880000D03*
X128080000Y-163880000D03*
X123000000Y-166420000D03*
X125540000Y-166420000D03*
X128080000Y-166420000D03*
%TD*%
D12*
%TO.C,H2*%
X73000000Y-176000000D03*
%TD*%
D18*
%TO.C,DATAMAN0*%
X132000000Y-108000000D03*
D19*
X132000000Y-110540000D03*
X132000000Y-113080000D03*
X132000000Y-115620000D03*
X132000000Y-118160000D03*
X132000000Y-120700000D03*
X132000000Y-123240000D03*
X132000000Y-125780000D03*
X132000000Y-128320000D03*
X132000000Y-130860000D03*
X132000000Y-133400000D03*
X132000000Y-135940000D03*
X132000000Y-138480000D03*
X132000000Y-141020000D03*
X132000000Y-143560000D03*
X132000000Y-146100000D03*
X132000000Y-148640000D03*
X132000000Y-151180000D03*
X132000000Y-153720000D03*
X132000000Y-156260000D03*
X132000000Y-158800000D03*
X132025000Y-161340000D03*
X132000000Y-163880000D03*
X132000000Y-166420000D03*
X147240000Y-166420000D03*
X147240000Y-163880000D03*
X147240000Y-161340000D03*
X147240000Y-158800000D03*
X147240000Y-156260000D03*
X147240000Y-153720000D03*
X147240000Y-151180000D03*
X147240000Y-148640000D03*
X147240000Y-146100000D03*
X147240000Y-143560000D03*
X147240000Y-141020000D03*
X147240000Y-138480000D03*
X147240000Y-135940000D03*
X147240000Y-133400000D03*
X147240000Y-130860000D03*
X147240000Y-128320000D03*
X147240000Y-125780000D03*
X147240000Y-123240000D03*
X147240000Y-120700000D03*
X147240000Y-118160000D03*
X147240000Y-115620000D03*
X147240000Y-113080000D03*
X147240000Y-110540000D03*
X147240000Y-108000000D03*
%TD*%
D13*
%TO.C,J2*%
X70730000Y-107920000D03*
D14*
X73270000Y-107920000D03*
X70730000Y-110460000D03*
X73270000Y-110460000D03*
X70730000Y-113000000D03*
X73270000Y-113000000D03*
X70730000Y-115540000D03*
X73270000Y-115540000D03*
X70730000Y-118080000D03*
X73270000Y-118080000D03*
%TD*%
D12*
%TO.C,UNK_HOLE_2*%
X94125000Y-140329700D03*
%TD*%
D15*
%TO.C,RA2*%
X74000000Y-125000000D03*
D16*
X74000000Y-127540000D03*
X74000000Y-130080000D03*
X74000000Y-132620000D03*
X74000000Y-135160000D03*
X74000000Y-137700000D03*
X74000000Y-140240000D03*
X74000000Y-142780000D03*
X74000000Y-145320000D03*
X74000000Y-147860000D03*
%TD*%
M02*
