%TF.GenerationSoftware,KiCad,Pcbnew,9.0.8*%
%TF.CreationDate,2026-03-24T13:32:18+00:00*%
%TF.ProjectId,EPM7128 Adapter,45504d37-3132-4382-9041-646170746572,1.1*%
%TF.SameCoordinates,Original*%
%TF.FileFunction,Legend,Bot*%
%TF.FilePolarity,Positive*%
%FSLAX46Y46*%
G04 Gerber Fmt 4.6, Leading zero omitted, Abs format (unit mm)*
G04 Created by KiCad (PCBNEW 9.0.8) date 2026-03-24 13:32:18*
%MOMM*%
%LPD*%
G01*
G04 APERTURE LIST*
%ADD10C,0.300000*%
%ADD11C,0.254000*%
%ADD12C,0.200000*%
G04 APERTURE END LIST*
D10*
X121590828Y-72560225D02*
X123090828Y-73060225D01*
X123090828Y-73060225D02*
X121590828Y-73560225D01*
X122947971Y-74917367D02*
X123019400Y-74845939D01*
X123019400Y-74845939D02*
X123090828Y-74631653D01*
X123090828Y-74631653D02*
X123090828Y-74488796D01*
X123090828Y-74488796D02*
X123019400Y-74274510D01*
X123019400Y-74274510D02*
X122876542Y-74131653D01*
X122876542Y-74131653D02*
X122733685Y-74060224D01*
X122733685Y-74060224D02*
X122447971Y-73988796D01*
X122447971Y-73988796D02*
X122233685Y-73988796D01*
X122233685Y-73988796D02*
X121947971Y-74060224D01*
X121947971Y-74060224D02*
X121805114Y-74131653D01*
X121805114Y-74131653D02*
X121662257Y-74274510D01*
X121662257Y-74274510D02*
X121590828Y-74488796D01*
X121590828Y-74488796D02*
X121590828Y-74631653D01*
X121590828Y-74631653D02*
X121662257Y-74845939D01*
X121662257Y-74845939D02*
X121733685Y-74917367D01*
X122947971Y-76417367D02*
X123019400Y-76345939D01*
X123019400Y-76345939D02*
X123090828Y-76131653D01*
X123090828Y-76131653D02*
X123090828Y-75988796D01*
X123090828Y-75988796D02*
X123019400Y-75774510D01*
X123019400Y-75774510D02*
X122876542Y-75631653D01*
X122876542Y-75631653D02*
X122733685Y-75560224D01*
X122733685Y-75560224D02*
X122447971Y-75488796D01*
X122447971Y-75488796D02*
X122233685Y-75488796D01*
X122233685Y-75488796D02*
X121947971Y-75560224D01*
X121947971Y-75560224D02*
X121805114Y-75631653D01*
X121805114Y-75631653D02*
X121662257Y-75774510D01*
X121662257Y-75774510D02*
X121590828Y-75988796D01*
X121590828Y-75988796D02*
X121590828Y-76131653D01*
X121590828Y-76131653D02*
X121662257Y-76345939D01*
X121662257Y-76345939D02*
X121733685Y-76417367D01*
X129360828Y-72220225D02*
X129360828Y-73077368D01*
X130860828Y-72648796D02*
X129360828Y-72648796D01*
X130860828Y-73577367D02*
X129360828Y-73577367D01*
X129360828Y-73577367D02*
X129360828Y-73934510D01*
X129360828Y-73934510D02*
X129432257Y-74148796D01*
X129432257Y-74148796D02*
X129575114Y-74291653D01*
X129575114Y-74291653D02*
X129717971Y-74363082D01*
X129717971Y-74363082D02*
X130003685Y-74434510D01*
X130003685Y-74434510D02*
X130217971Y-74434510D01*
X130217971Y-74434510D02*
X130503685Y-74363082D01*
X130503685Y-74363082D02*
X130646542Y-74291653D01*
X130646542Y-74291653D02*
X130789400Y-74148796D01*
X130789400Y-74148796D02*
X130860828Y-73934510D01*
X130860828Y-73934510D02*
X130860828Y-73577367D01*
X129360828Y-75363082D02*
X129360828Y-75648796D01*
X129360828Y-75648796D02*
X129432257Y-75791653D01*
X129432257Y-75791653D02*
X129575114Y-75934510D01*
X129575114Y-75934510D02*
X129860828Y-76005939D01*
X129860828Y-76005939D02*
X130360828Y-76005939D01*
X130360828Y-76005939D02*
X130646542Y-75934510D01*
X130646542Y-75934510D02*
X130789400Y-75791653D01*
X130789400Y-75791653D02*
X130860828Y-75648796D01*
X130860828Y-75648796D02*
X130860828Y-75363082D01*
X130860828Y-75363082D02*
X130789400Y-75220225D01*
X130789400Y-75220225D02*
X130646542Y-75077367D01*
X130646542Y-75077367D02*
X130360828Y-75005939D01*
X130360828Y-75005939D02*
X129860828Y-75005939D01*
X129860828Y-75005939D02*
X129575114Y-75077367D01*
X129575114Y-75077367D02*
X129432257Y-75220225D01*
X129432257Y-75220225D02*
X129360828Y-75363082D01*
X131850828Y-80310225D02*
X131850828Y-81167368D01*
X133350828Y-80738796D02*
X131850828Y-80738796D01*
X133350828Y-81667367D02*
X131850828Y-81667367D01*
X131850828Y-81667367D02*
X131850828Y-82024510D01*
X131850828Y-82024510D02*
X131922257Y-82238796D01*
X131922257Y-82238796D02*
X132065114Y-82381653D01*
X132065114Y-82381653D02*
X132207971Y-82453082D01*
X132207971Y-82453082D02*
X132493685Y-82524510D01*
X132493685Y-82524510D02*
X132707971Y-82524510D01*
X132707971Y-82524510D02*
X132993685Y-82453082D01*
X132993685Y-82453082D02*
X133136542Y-82381653D01*
X133136542Y-82381653D02*
X133279400Y-82238796D01*
X133279400Y-82238796D02*
X133350828Y-82024510D01*
X133350828Y-82024510D02*
X133350828Y-81667367D01*
X133350828Y-83167367D02*
X131850828Y-83167367D01*
X144590828Y-72670225D02*
X144590828Y-73527368D01*
X146090828Y-73098796D02*
X144590828Y-73098796D01*
X145947971Y-74884510D02*
X146019400Y-74813082D01*
X146019400Y-74813082D02*
X146090828Y-74598796D01*
X146090828Y-74598796D02*
X146090828Y-74455939D01*
X146090828Y-74455939D02*
X146019400Y-74241653D01*
X146019400Y-74241653D02*
X145876542Y-74098796D01*
X145876542Y-74098796D02*
X145733685Y-74027367D01*
X145733685Y-74027367D02*
X145447971Y-73955939D01*
X145447971Y-73955939D02*
X145233685Y-73955939D01*
X145233685Y-73955939D02*
X144947971Y-74027367D01*
X144947971Y-74027367D02*
X144805114Y-74098796D01*
X144805114Y-74098796D02*
X144662257Y-74241653D01*
X144662257Y-74241653D02*
X144590828Y-74455939D01*
X144590828Y-74455939D02*
X144590828Y-74598796D01*
X144590828Y-74598796D02*
X144662257Y-74813082D01*
X144662257Y-74813082D02*
X144733685Y-74884510D01*
X146090828Y-75527367D02*
X144590828Y-75527367D01*
X146090828Y-76384510D02*
X145233685Y-75741653D01*
X144590828Y-76384510D02*
X145447971Y-75527367D01*
X170052257Y-80140225D02*
X169980828Y-79997368D01*
X169980828Y-79997368D02*
X169980828Y-79783082D01*
X169980828Y-79783082D02*
X170052257Y-79568796D01*
X170052257Y-79568796D02*
X170195114Y-79425939D01*
X170195114Y-79425939D02*
X170337971Y-79354510D01*
X170337971Y-79354510D02*
X170623685Y-79283082D01*
X170623685Y-79283082D02*
X170837971Y-79283082D01*
X170837971Y-79283082D02*
X171123685Y-79354510D01*
X171123685Y-79354510D02*
X171266542Y-79425939D01*
X171266542Y-79425939D02*
X171409400Y-79568796D01*
X171409400Y-79568796D02*
X171480828Y-79783082D01*
X171480828Y-79783082D02*
X171480828Y-79925939D01*
X171480828Y-79925939D02*
X171409400Y-80140225D01*
X171409400Y-80140225D02*
X171337971Y-80211653D01*
X171337971Y-80211653D02*
X170837971Y-80211653D01*
X170837971Y-80211653D02*
X170837971Y-79925939D01*
X171480828Y-80854510D02*
X169980828Y-80854510D01*
X169980828Y-80854510D02*
X171480828Y-81711653D01*
X171480828Y-81711653D02*
X169980828Y-81711653D01*
X171480828Y-82425939D02*
X169980828Y-82425939D01*
X169980828Y-82425939D02*
X169980828Y-82783082D01*
X169980828Y-82783082D02*
X170052257Y-82997368D01*
X170052257Y-82997368D02*
X170195114Y-83140225D01*
X170195114Y-83140225D02*
X170337971Y-83211654D01*
X170337971Y-83211654D02*
X170623685Y-83283082D01*
X170623685Y-83283082D02*
X170837971Y-83283082D01*
X170837971Y-83283082D02*
X171123685Y-83211654D01*
X171123685Y-83211654D02*
X171266542Y-83140225D01*
X171266542Y-83140225D02*
X171409400Y-82997368D01*
X171409400Y-82997368D02*
X171480828Y-82783082D01*
X171480828Y-82783082D02*
X171480828Y-82425939D01*
X142180828Y-79590225D02*
X142180828Y-80447368D01*
X143680828Y-80018796D02*
X142180828Y-80018796D01*
X143680828Y-80947367D02*
X142180828Y-80947367D01*
X142180828Y-80947367D02*
X143252257Y-81447367D01*
X143252257Y-81447367D02*
X142180828Y-81947367D01*
X142180828Y-81947367D02*
X143680828Y-81947367D01*
X143609400Y-82590225D02*
X143680828Y-82804511D01*
X143680828Y-82804511D02*
X143680828Y-83161653D01*
X143680828Y-83161653D02*
X143609400Y-83304511D01*
X143609400Y-83304511D02*
X143537971Y-83375939D01*
X143537971Y-83375939D02*
X143395114Y-83447368D01*
X143395114Y-83447368D02*
X143252257Y-83447368D01*
X143252257Y-83447368D02*
X143109400Y-83375939D01*
X143109400Y-83375939D02*
X143037971Y-83304511D01*
X143037971Y-83304511D02*
X142966542Y-83161653D01*
X142966542Y-83161653D02*
X142895114Y-82875939D01*
X142895114Y-82875939D02*
X142823685Y-82733082D01*
X142823685Y-82733082D02*
X142752257Y-82661653D01*
X142752257Y-82661653D02*
X142609400Y-82590225D01*
X142609400Y-82590225D02*
X142466542Y-82590225D01*
X142466542Y-82590225D02*
X142323685Y-82661653D01*
X142323685Y-82661653D02*
X142252257Y-82733082D01*
X142252257Y-82733082D02*
X142180828Y-82875939D01*
X142180828Y-82875939D02*
X142180828Y-83233082D01*
X142180828Y-83233082D02*
X142252257Y-83447368D01*
D11*
X121181666Y-125343365D02*
X121242142Y-125403842D01*
X121242142Y-125403842D02*
X121423571Y-125464318D01*
X121423571Y-125464318D02*
X121544523Y-125464318D01*
X121544523Y-125464318D02*
X121725952Y-125403842D01*
X121725952Y-125403842D02*
X121846904Y-125282889D01*
X121846904Y-125282889D02*
X121907381Y-125161937D01*
X121907381Y-125161937D02*
X121967857Y-124920032D01*
X121967857Y-124920032D02*
X121967857Y-124738603D01*
X121967857Y-124738603D02*
X121907381Y-124496699D01*
X121907381Y-124496699D02*
X121846904Y-124375746D01*
X121846904Y-124375746D02*
X121725952Y-124254794D01*
X121725952Y-124254794D02*
X121544523Y-124194318D01*
X121544523Y-124194318D02*
X121423571Y-124194318D01*
X121423571Y-124194318D02*
X121242142Y-124254794D01*
X121242142Y-124254794D02*
X121181666Y-124315270D01*
X120758333Y-124194318D02*
X119911666Y-124194318D01*
X119911666Y-124194318D02*
X120455952Y-125464318D01*
X148623365Y-107388333D02*
X148683842Y-107327857D01*
X148683842Y-107327857D02*
X148744318Y-107146428D01*
X148744318Y-107146428D02*
X148744318Y-107025476D01*
X148744318Y-107025476D02*
X148683842Y-106844047D01*
X148683842Y-106844047D02*
X148562889Y-106723095D01*
X148562889Y-106723095D02*
X148441937Y-106662618D01*
X148441937Y-106662618D02*
X148200032Y-106602142D01*
X148200032Y-106602142D02*
X148018603Y-106602142D01*
X148018603Y-106602142D02*
X147776699Y-106662618D01*
X147776699Y-106662618D02*
X147655746Y-106723095D01*
X147655746Y-106723095D02*
X147534794Y-106844047D01*
X147534794Y-106844047D02*
X147474318Y-107025476D01*
X147474318Y-107025476D02*
X147474318Y-107146428D01*
X147474318Y-107146428D02*
X147534794Y-107327857D01*
X147534794Y-107327857D02*
X147595270Y-107388333D01*
X148744318Y-108597857D02*
X148744318Y-107872142D01*
X148744318Y-108234999D02*
X147474318Y-108234999D01*
X147474318Y-108234999D02*
X147655746Y-108114047D01*
X147655746Y-108114047D02*
X147776699Y-107993095D01*
X147776699Y-107993095D02*
X147837175Y-107872142D01*
X137453365Y-125688333D02*
X137513842Y-125627857D01*
X137513842Y-125627857D02*
X137574318Y-125446428D01*
X137574318Y-125446428D02*
X137574318Y-125325476D01*
X137574318Y-125325476D02*
X137513842Y-125144047D01*
X137513842Y-125144047D02*
X137392889Y-125023095D01*
X137392889Y-125023095D02*
X137271937Y-124962618D01*
X137271937Y-124962618D02*
X137030032Y-124902142D01*
X137030032Y-124902142D02*
X136848603Y-124902142D01*
X136848603Y-124902142D02*
X136606699Y-124962618D01*
X136606699Y-124962618D02*
X136485746Y-125023095D01*
X136485746Y-125023095D02*
X136364794Y-125144047D01*
X136364794Y-125144047D02*
X136304318Y-125325476D01*
X136304318Y-125325476D02*
X136304318Y-125446428D01*
X136304318Y-125446428D02*
X136364794Y-125627857D01*
X136364794Y-125627857D02*
X136425270Y-125688333D01*
X136304318Y-126111666D02*
X136304318Y-126897857D01*
X136304318Y-126897857D02*
X136788127Y-126474523D01*
X136788127Y-126474523D02*
X136788127Y-126655952D01*
X136788127Y-126655952D02*
X136848603Y-126776904D01*
X136848603Y-126776904D02*
X136909080Y-126837380D01*
X136909080Y-126837380D02*
X137030032Y-126897857D01*
X137030032Y-126897857D02*
X137332413Y-126897857D01*
X137332413Y-126897857D02*
X137453365Y-126837380D01*
X137453365Y-126837380D02*
X137513842Y-126776904D01*
X137513842Y-126776904D02*
X137574318Y-126655952D01*
X137574318Y-126655952D02*
X137574318Y-126293095D01*
X137574318Y-126293095D02*
X137513842Y-126172142D01*
X137513842Y-126172142D02*
X137453365Y-126111666D01*
X142263365Y-98338333D02*
X142323842Y-98277857D01*
X142323842Y-98277857D02*
X142384318Y-98096428D01*
X142384318Y-98096428D02*
X142384318Y-97975476D01*
X142384318Y-97975476D02*
X142323842Y-97794047D01*
X142323842Y-97794047D02*
X142202889Y-97673095D01*
X142202889Y-97673095D02*
X142081937Y-97612618D01*
X142081937Y-97612618D02*
X141840032Y-97552142D01*
X141840032Y-97552142D02*
X141658603Y-97552142D01*
X141658603Y-97552142D02*
X141416699Y-97612618D01*
X141416699Y-97612618D02*
X141295746Y-97673095D01*
X141295746Y-97673095D02*
X141174794Y-97794047D01*
X141174794Y-97794047D02*
X141114318Y-97975476D01*
X141114318Y-97975476D02*
X141114318Y-98096428D01*
X141114318Y-98096428D02*
X141174794Y-98277857D01*
X141174794Y-98277857D02*
X141235270Y-98338333D01*
X141658603Y-99064047D02*
X141598127Y-98943095D01*
X141598127Y-98943095D02*
X141537651Y-98882618D01*
X141537651Y-98882618D02*
X141416699Y-98822142D01*
X141416699Y-98822142D02*
X141356222Y-98822142D01*
X141356222Y-98822142D02*
X141235270Y-98882618D01*
X141235270Y-98882618D02*
X141174794Y-98943095D01*
X141174794Y-98943095D02*
X141114318Y-99064047D01*
X141114318Y-99064047D02*
X141114318Y-99305952D01*
X141114318Y-99305952D02*
X141174794Y-99426904D01*
X141174794Y-99426904D02*
X141235270Y-99487380D01*
X141235270Y-99487380D02*
X141356222Y-99547857D01*
X141356222Y-99547857D02*
X141416699Y-99547857D01*
X141416699Y-99547857D02*
X141537651Y-99487380D01*
X141537651Y-99487380D02*
X141598127Y-99426904D01*
X141598127Y-99426904D02*
X141658603Y-99305952D01*
X141658603Y-99305952D02*
X141658603Y-99064047D01*
X141658603Y-99064047D02*
X141719080Y-98943095D01*
X141719080Y-98943095D02*
X141779556Y-98882618D01*
X141779556Y-98882618D02*
X141900508Y-98822142D01*
X141900508Y-98822142D02*
X142142413Y-98822142D01*
X142142413Y-98822142D02*
X142263365Y-98882618D01*
X142263365Y-98882618D02*
X142323842Y-98943095D01*
X142323842Y-98943095D02*
X142384318Y-99064047D01*
X142384318Y-99064047D02*
X142384318Y-99305952D01*
X142384318Y-99305952D02*
X142323842Y-99426904D01*
X142323842Y-99426904D02*
X142263365Y-99487380D01*
X142263365Y-99487380D02*
X142142413Y-99547857D01*
X142142413Y-99547857D02*
X141900508Y-99547857D01*
X141900508Y-99547857D02*
X141779556Y-99487380D01*
X141779556Y-99487380D02*
X141719080Y-99426904D01*
X141719080Y-99426904D02*
X141658603Y-99305952D01*
X163613365Y-135288333D02*
X163673842Y-135227857D01*
X163673842Y-135227857D02*
X163734318Y-135046428D01*
X163734318Y-135046428D02*
X163734318Y-134925476D01*
X163734318Y-134925476D02*
X163673842Y-134744047D01*
X163673842Y-134744047D02*
X163552889Y-134623095D01*
X163552889Y-134623095D02*
X163431937Y-134562618D01*
X163431937Y-134562618D02*
X163190032Y-134502142D01*
X163190032Y-134502142D02*
X163008603Y-134502142D01*
X163008603Y-134502142D02*
X162766699Y-134562618D01*
X162766699Y-134562618D02*
X162645746Y-134623095D01*
X162645746Y-134623095D02*
X162524794Y-134744047D01*
X162524794Y-134744047D02*
X162464318Y-134925476D01*
X162464318Y-134925476D02*
X162464318Y-135046428D01*
X162464318Y-135046428D02*
X162524794Y-135227857D01*
X162524794Y-135227857D02*
X162585270Y-135288333D01*
X162887651Y-136376904D02*
X163734318Y-136376904D01*
X162403842Y-136074523D02*
X163310984Y-135772142D01*
X163310984Y-135772142D02*
X163310984Y-136558333D01*
X169991666Y-112633365D02*
X170052142Y-112693842D01*
X170052142Y-112693842D02*
X170233571Y-112754318D01*
X170233571Y-112754318D02*
X170354523Y-112754318D01*
X170354523Y-112754318D02*
X170535952Y-112693842D01*
X170535952Y-112693842D02*
X170656904Y-112572889D01*
X170656904Y-112572889D02*
X170717381Y-112451937D01*
X170717381Y-112451937D02*
X170777857Y-112210032D01*
X170777857Y-112210032D02*
X170777857Y-112028603D01*
X170777857Y-112028603D02*
X170717381Y-111786699D01*
X170717381Y-111786699D02*
X170656904Y-111665746D01*
X170656904Y-111665746D02*
X170535952Y-111544794D01*
X170535952Y-111544794D02*
X170354523Y-111484318D01*
X170354523Y-111484318D02*
X170233571Y-111484318D01*
X170233571Y-111484318D02*
X170052142Y-111544794D01*
X170052142Y-111544794D02*
X169991666Y-111605270D01*
X168842619Y-111484318D02*
X169447381Y-111484318D01*
X169447381Y-111484318D02*
X169507857Y-112089080D01*
X169507857Y-112089080D02*
X169447381Y-112028603D01*
X169447381Y-112028603D02*
X169326428Y-111968127D01*
X169326428Y-111968127D02*
X169024047Y-111968127D01*
X169024047Y-111968127D02*
X168903095Y-112028603D01*
X168903095Y-112028603D02*
X168842619Y-112089080D01*
X168842619Y-112089080D02*
X168782142Y-112210032D01*
X168782142Y-112210032D02*
X168782142Y-112512413D01*
X168782142Y-112512413D02*
X168842619Y-112633365D01*
X168842619Y-112633365D02*
X168903095Y-112693842D01*
X168903095Y-112693842D02*
X169024047Y-112754318D01*
X169024047Y-112754318D02*
X169326428Y-112754318D01*
X169326428Y-112754318D02*
X169447381Y-112693842D01*
X169447381Y-112693842D02*
X169507857Y-112633365D01*
X149031666Y-136213365D02*
X149092142Y-136273842D01*
X149092142Y-136273842D02*
X149273571Y-136334318D01*
X149273571Y-136334318D02*
X149394523Y-136334318D01*
X149394523Y-136334318D02*
X149575952Y-136273842D01*
X149575952Y-136273842D02*
X149696904Y-136152889D01*
X149696904Y-136152889D02*
X149757381Y-136031937D01*
X149757381Y-136031937D02*
X149817857Y-135790032D01*
X149817857Y-135790032D02*
X149817857Y-135608603D01*
X149817857Y-135608603D02*
X149757381Y-135366699D01*
X149757381Y-135366699D02*
X149696904Y-135245746D01*
X149696904Y-135245746D02*
X149575952Y-135124794D01*
X149575952Y-135124794D02*
X149394523Y-135064318D01*
X149394523Y-135064318D02*
X149273571Y-135064318D01*
X149273571Y-135064318D02*
X149092142Y-135124794D01*
X149092142Y-135124794D02*
X149031666Y-135185270D01*
X147943095Y-135064318D02*
X148185000Y-135064318D01*
X148185000Y-135064318D02*
X148305952Y-135124794D01*
X148305952Y-135124794D02*
X148366428Y-135185270D01*
X148366428Y-135185270D02*
X148487381Y-135366699D01*
X148487381Y-135366699D02*
X148547857Y-135608603D01*
X148547857Y-135608603D02*
X148547857Y-136092413D01*
X148547857Y-136092413D02*
X148487381Y-136213365D01*
X148487381Y-136213365D02*
X148426904Y-136273842D01*
X148426904Y-136273842D02*
X148305952Y-136334318D01*
X148305952Y-136334318D02*
X148064047Y-136334318D01*
X148064047Y-136334318D02*
X147943095Y-136273842D01*
X147943095Y-136273842D02*
X147882619Y-136213365D01*
X147882619Y-136213365D02*
X147822142Y-136092413D01*
X147822142Y-136092413D02*
X147822142Y-135790032D01*
X147822142Y-135790032D02*
X147882619Y-135669080D01*
X147882619Y-135669080D02*
X147943095Y-135608603D01*
X147943095Y-135608603D02*
X148064047Y-135548127D01*
X148064047Y-135548127D02*
X148305952Y-135548127D01*
X148305952Y-135548127D02*
X148426904Y-135608603D01*
X148426904Y-135608603D02*
X148487381Y-135669080D01*
X148487381Y-135669080D02*
X148547857Y-135790032D01*
X136423365Y-108168333D02*
X136483842Y-108107857D01*
X136483842Y-108107857D02*
X136544318Y-107926428D01*
X136544318Y-107926428D02*
X136544318Y-107805476D01*
X136544318Y-107805476D02*
X136483842Y-107624047D01*
X136483842Y-107624047D02*
X136362889Y-107503095D01*
X136362889Y-107503095D02*
X136241937Y-107442618D01*
X136241937Y-107442618D02*
X136000032Y-107382142D01*
X136000032Y-107382142D02*
X135818603Y-107382142D01*
X135818603Y-107382142D02*
X135576699Y-107442618D01*
X135576699Y-107442618D02*
X135455746Y-107503095D01*
X135455746Y-107503095D02*
X135334794Y-107624047D01*
X135334794Y-107624047D02*
X135274318Y-107805476D01*
X135274318Y-107805476D02*
X135274318Y-107926428D01*
X135274318Y-107926428D02*
X135334794Y-108107857D01*
X135334794Y-108107857D02*
X135395270Y-108168333D01*
X135395270Y-108652142D02*
X135334794Y-108712618D01*
X135334794Y-108712618D02*
X135274318Y-108833571D01*
X135274318Y-108833571D02*
X135274318Y-109135952D01*
X135274318Y-109135952D02*
X135334794Y-109256904D01*
X135334794Y-109256904D02*
X135395270Y-109317380D01*
X135395270Y-109317380D02*
X135516222Y-109377857D01*
X135516222Y-109377857D02*
X135637175Y-109377857D01*
X135637175Y-109377857D02*
X135818603Y-109317380D01*
X135818603Y-109317380D02*
X136544318Y-108591666D01*
X136544318Y-108591666D02*
X136544318Y-109377857D01*
D12*
%TO.C,C7*%
X123370000Y-122010000D02*
G75*
G02*
X123270000Y-122010000I-50000J0D01*
G01*
X123270000Y-122010000D02*
G75*
G02*
X123370000Y-122010000I50000J0D01*
G01*
%TO.C,C1*%
X151300000Y-105250000D02*
G75*
G02*
X151200000Y-105250000I-50000J0D01*
G01*
X151200000Y-105250000D02*
G75*
G02*
X151300000Y-105250000I50000J0D01*
G01*
%TO.C,C3*%
X134120000Y-128250000D02*
G75*
G02*
X134020000Y-128250000I-50000J0D01*
G01*
X134020000Y-128250000D02*
G75*
G02*
X134120000Y-128250000I50000J0D01*
G01*
%TO.C,C8*%
X139010000Y-100340000D02*
G75*
G02*
X138910000Y-100340000I-50000J0D01*
G01*
X138910000Y-100340000D02*
G75*
G02*
X139010000Y-100340000I50000J0D01*
G01*
%TO.C,C4*%
X160390000Y-133150000D02*
G75*
G02*
X160290000Y-133150000I-50000J0D01*
G01*
X160290000Y-133150000D02*
G75*
G02*
X160390000Y-133150000I50000J0D01*
G01*
%TO.C,C5*%
X162940000Y-112180000D02*
G75*
G02*
X162840000Y-112180000I-50000J0D01*
G01*
X162840000Y-112180000D02*
G75*
G02*
X162940000Y-112180000I50000J0D01*
G01*
%TO.C,C6*%
X141310000Y-135760000D02*
G75*
G02*
X141210000Y-135760000I-50000J0D01*
G01*
X141210000Y-135760000D02*
G75*
G02*
X141310000Y-135760000I50000J0D01*
G01*
%TO.C,C2*%
X133090000Y-106030000D02*
G75*
G02*
X132990000Y-106030000I-50000J0D01*
G01*
X132990000Y-106030000D02*
G75*
G02*
X133090000Y-106030000I50000J0D01*
G01*
%TD*%
M02*
