%TF.GenerationSoftware,KiCad,Pcbnew,9.0.8*%
%TF.CreationDate,2026-03-24T13:32:18+00:00*%
%TF.ProjectId,EPM7128 Adapter,45504d37-3132-4382-9041-646170746572,1.1*%
%TF.SameCoordinates,Original*%
%TF.FileFunction,Other,User*%
%FSLAX46Y46*%
G04 Gerber Fmt 4.6, Leading zero omitted, Abs format (unit mm)*
G04 Created by KiCad (PCBNEW 9.0.8) date 2026-03-24 13:32:18*
%MOMM*%
%LPD*%
G01*
G04 APERTURE LIST*
%ADD10C,0.050000*%
G04 APERTURE END LIST*
D10*
%TO.C,C7*%
X118095000Y-120210000D02*
X118095000Y-123810000D01*
X118095000Y-123810000D02*
X123845000Y-123810000D01*
X123845000Y-120210000D02*
X118095000Y-120210000D01*
X123845000Y-123810000D02*
X123845000Y-120210000D01*
%TO.C,C1*%
X149450000Y-104725000D02*
X149450000Y-110475000D01*
X149450000Y-110475000D02*
X153050000Y-110475000D01*
X153050000Y-104725000D02*
X149450000Y-104725000D01*
X153050000Y-110475000D02*
X153050000Y-104725000D01*
%TO.C,C3*%
X132270000Y-123025000D02*
X132270000Y-128775000D01*
X132270000Y-128775000D02*
X135870000Y-128775000D01*
X135870000Y-123025000D02*
X132270000Y-123025000D01*
X135870000Y-128775000D02*
X135870000Y-123025000D01*
%TO.C,C8*%
X137160000Y-95115000D02*
X137160000Y-100865000D01*
X137160000Y-100865000D02*
X140760000Y-100865000D01*
X140760000Y-95115000D02*
X137160000Y-95115000D01*
X140760000Y-100865000D02*
X140760000Y-95115000D01*
%TO.C,C4*%
X158540000Y-132625000D02*
X158540000Y-138375000D01*
X158540000Y-138375000D02*
X162140000Y-138375000D01*
X162140000Y-132625000D02*
X158540000Y-132625000D01*
X162140000Y-138375000D02*
X162140000Y-132625000D01*
%TO.C,C5*%
X162365000Y-110380000D02*
X162365000Y-113980000D01*
X162365000Y-113980000D02*
X168115000Y-113980000D01*
X168115000Y-110380000D02*
X162365000Y-110380000D01*
X168115000Y-113980000D02*
X168115000Y-110380000D01*
%TO.C,C6*%
X140735000Y-133960000D02*
X140735000Y-137560000D01*
X140735000Y-137560000D02*
X146485000Y-137560000D01*
X146485000Y-133960000D02*
X140735000Y-133960000D01*
X146485000Y-137560000D02*
X146485000Y-133960000D01*
%TO.C,C2*%
X131240000Y-105505000D02*
X131240000Y-111255000D01*
X131240000Y-111255000D02*
X134840000Y-111255000D01*
X134840000Y-105505000D02*
X131240000Y-105505000D01*
X134840000Y-111255000D02*
X134840000Y-105505000D01*
%TD*%
M02*
