%TF.GenerationSoftware,KiCad,Pcbnew,9.0.8*%
%TF.CreationDate,2026-04-27T14:38:10+01:00*%
%TF.ProjectId,EPM7128 Adapter,45504d37-3132-4382-9041-646170746572,2.1*%
%TF.SameCoordinates,Original*%
%TF.FileFunction,Legend,Top*%
%TF.FilePolarity,Positive*%
%FSLAX46Y46*%
G04 Gerber Fmt 4.6, Leading zero omitted, Abs format (unit mm)*
G04 Created by KiCad (PCBNEW 9.0.8) date 2026-04-27 14:38:10*
%MOMM*%
%LPD*%
G01*
G04 APERTURE LIST*
%ADD10C,0.142240*%
%ADD11C,0.254000*%
%ADD12C,0.150000*%
%ADD13C,0.100000*%
%ADD14C,0.200000*%
G04 APERTURE END LIST*
D10*
X83323044Y-178222117D02*
X83323044Y-176586357D01*
X83323044Y-176586357D02*
X83712511Y-176586357D01*
X83712511Y-176586357D02*
X83946191Y-176664250D01*
X83946191Y-176664250D02*
X84101978Y-176820037D01*
X84101978Y-176820037D02*
X84179871Y-176975824D01*
X84179871Y-176975824D02*
X84257764Y-177287397D01*
X84257764Y-177287397D02*
X84257764Y-177521077D01*
X84257764Y-177521077D02*
X84179871Y-177832650D01*
X84179871Y-177832650D02*
X84101978Y-177988437D01*
X84101978Y-177988437D02*
X83946191Y-178144224D01*
X83946191Y-178144224D02*
X83712511Y-178222117D01*
X83712511Y-178222117D02*
X83323044Y-178222117D01*
X85659844Y-178222117D02*
X85659844Y-177365290D01*
X85659844Y-177365290D02*
X85581951Y-177209504D01*
X85581951Y-177209504D02*
X85426164Y-177131610D01*
X85426164Y-177131610D02*
X85114591Y-177131610D01*
X85114591Y-177131610D02*
X84958804Y-177209504D01*
X85659844Y-178144224D02*
X85504058Y-178222117D01*
X85504058Y-178222117D02*
X85114591Y-178222117D01*
X85114591Y-178222117D02*
X84958804Y-178144224D01*
X84958804Y-178144224D02*
X84880911Y-177988437D01*
X84880911Y-177988437D02*
X84880911Y-177832650D01*
X84880911Y-177832650D02*
X84958804Y-177676864D01*
X84958804Y-177676864D02*
X85114591Y-177598970D01*
X85114591Y-177598970D02*
X85504058Y-177598970D01*
X85504058Y-177598970D02*
X85659844Y-177521077D01*
X86205097Y-177131610D02*
X86828244Y-177131610D01*
X86438777Y-176586357D02*
X86438777Y-177988437D01*
X86438777Y-177988437D02*
X86516671Y-178144224D01*
X86516671Y-178144224D02*
X86672457Y-178222117D01*
X86672457Y-178222117D02*
X86828244Y-178222117D01*
X88074537Y-178222117D02*
X88074537Y-177365290D01*
X88074537Y-177365290D02*
X87996644Y-177209504D01*
X87996644Y-177209504D02*
X87840857Y-177131610D01*
X87840857Y-177131610D02*
X87529284Y-177131610D01*
X87529284Y-177131610D02*
X87373497Y-177209504D01*
X88074537Y-178144224D02*
X87918751Y-178222117D01*
X87918751Y-178222117D02*
X87529284Y-178222117D01*
X87529284Y-178222117D02*
X87373497Y-178144224D01*
X87373497Y-178144224D02*
X87295604Y-177988437D01*
X87295604Y-177988437D02*
X87295604Y-177832650D01*
X87295604Y-177832650D02*
X87373497Y-177676864D01*
X87373497Y-177676864D02*
X87529284Y-177598970D01*
X87529284Y-177598970D02*
X87918751Y-177598970D01*
X87918751Y-177598970D02*
X88074537Y-177521077D01*
X88853470Y-178222117D02*
X88853470Y-177131610D01*
X88853470Y-177287397D02*
X88931364Y-177209504D01*
X88931364Y-177209504D02*
X89087150Y-177131610D01*
X89087150Y-177131610D02*
X89320830Y-177131610D01*
X89320830Y-177131610D02*
X89476617Y-177209504D01*
X89476617Y-177209504D02*
X89554510Y-177365290D01*
X89554510Y-177365290D02*
X89554510Y-178222117D01*
X89554510Y-177365290D02*
X89632404Y-177209504D01*
X89632404Y-177209504D02*
X89788190Y-177131610D01*
X89788190Y-177131610D02*
X90021870Y-177131610D01*
X90021870Y-177131610D02*
X90177657Y-177209504D01*
X90177657Y-177209504D02*
X90255550Y-177365290D01*
X90255550Y-177365290D02*
X90255550Y-178222117D01*
X91735523Y-178222117D02*
X91735523Y-177365290D01*
X91735523Y-177365290D02*
X91657630Y-177209504D01*
X91657630Y-177209504D02*
X91501843Y-177131610D01*
X91501843Y-177131610D02*
X91190270Y-177131610D01*
X91190270Y-177131610D02*
X91034483Y-177209504D01*
X91735523Y-178144224D02*
X91579737Y-178222117D01*
X91579737Y-178222117D02*
X91190270Y-178222117D01*
X91190270Y-178222117D02*
X91034483Y-178144224D01*
X91034483Y-178144224D02*
X90956590Y-177988437D01*
X90956590Y-177988437D02*
X90956590Y-177832650D01*
X90956590Y-177832650D02*
X91034483Y-177676864D01*
X91034483Y-177676864D02*
X91190270Y-177598970D01*
X91190270Y-177598970D02*
X91579737Y-177598970D01*
X91579737Y-177598970D02*
X91735523Y-177521077D01*
X92514456Y-177131610D02*
X92514456Y-178222117D01*
X92514456Y-177287397D02*
X92592350Y-177209504D01*
X92592350Y-177209504D02*
X92748136Y-177131610D01*
X92748136Y-177131610D02*
X92981816Y-177131610D01*
X92981816Y-177131610D02*
X93137603Y-177209504D01*
X93137603Y-177209504D02*
X93215496Y-177365290D01*
X93215496Y-177365290D02*
X93215496Y-178222117D01*
X95240722Y-177365290D02*
X95785976Y-177365290D01*
X96019656Y-178222117D02*
X95240722Y-178222117D01*
X95240722Y-178222117D02*
X95240722Y-176586357D01*
X95240722Y-176586357D02*
X96019656Y-176586357D01*
X96720695Y-178222117D02*
X96720695Y-176586357D01*
X96720695Y-176586357D02*
X97343842Y-176586357D01*
X97343842Y-176586357D02*
X97499629Y-176664250D01*
X97499629Y-176664250D02*
X97577522Y-176742144D01*
X97577522Y-176742144D02*
X97655415Y-176897930D01*
X97655415Y-176897930D02*
X97655415Y-177131610D01*
X97655415Y-177131610D02*
X97577522Y-177287397D01*
X97577522Y-177287397D02*
X97499629Y-177365290D01*
X97499629Y-177365290D02*
X97343842Y-177443184D01*
X97343842Y-177443184D02*
X96720695Y-177443184D01*
X98356455Y-178222117D02*
X98356455Y-176586357D01*
X98356455Y-176586357D02*
X98901709Y-177754757D01*
X98901709Y-177754757D02*
X99446962Y-176586357D01*
X99446962Y-176586357D02*
X99446962Y-178222117D01*
X100070109Y-176586357D02*
X101160615Y-176586357D01*
X101160615Y-176586357D02*
X100459575Y-178222117D01*
X102640589Y-178222117D02*
X101705869Y-178222117D01*
X102173229Y-178222117D02*
X102173229Y-176586357D01*
X102173229Y-176586357D02*
X102017442Y-176820037D01*
X102017442Y-176820037D02*
X101861656Y-176975824D01*
X101861656Y-176975824D02*
X101705869Y-177053717D01*
X103263736Y-176742144D02*
X103341629Y-176664250D01*
X103341629Y-176664250D02*
X103497416Y-176586357D01*
X103497416Y-176586357D02*
X103886883Y-176586357D01*
X103886883Y-176586357D02*
X104042669Y-176664250D01*
X104042669Y-176664250D02*
X104120563Y-176742144D01*
X104120563Y-176742144D02*
X104198456Y-176897930D01*
X104198456Y-176897930D02*
X104198456Y-177053717D01*
X104198456Y-177053717D02*
X104120563Y-177287397D01*
X104120563Y-177287397D02*
X103185843Y-178222117D01*
X103185843Y-178222117D02*
X104198456Y-178222117D01*
X105133176Y-177287397D02*
X104977390Y-177209504D01*
X104977390Y-177209504D02*
X104899496Y-177131610D01*
X104899496Y-177131610D02*
X104821603Y-176975824D01*
X104821603Y-176975824D02*
X104821603Y-176897930D01*
X104821603Y-176897930D02*
X104899496Y-176742144D01*
X104899496Y-176742144D02*
X104977390Y-176664250D01*
X104977390Y-176664250D02*
X105133176Y-176586357D01*
X105133176Y-176586357D02*
X105444750Y-176586357D01*
X105444750Y-176586357D02*
X105600536Y-176664250D01*
X105600536Y-176664250D02*
X105678430Y-176742144D01*
X105678430Y-176742144D02*
X105756323Y-176897930D01*
X105756323Y-176897930D02*
X105756323Y-176975824D01*
X105756323Y-176975824D02*
X105678430Y-177131610D01*
X105678430Y-177131610D02*
X105600536Y-177209504D01*
X105600536Y-177209504D02*
X105444750Y-177287397D01*
X105444750Y-177287397D02*
X105133176Y-177287397D01*
X105133176Y-177287397D02*
X104977390Y-177365290D01*
X104977390Y-177365290D02*
X104899496Y-177443184D01*
X104899496Y-177443184D02*
X104821603Y-177598970D01*
X104821603Y-177598970D02*
X104821603Y-177910544D01*
X104821603Y-177910544D02*
X104899496Y-178066330D01*
X104899496Y-178066330D02*
X104977390Y-178144224D01*
X104977390Y-178144224D02*
X105133176Y-178222117D01*
X105133176Y-178222117D02*
X105444750Y-178222117D01*
X105444750Y-178222117D02*
X105600536Y-178144224D01*
X105600536Y-178144224D02*
X105678430Y-178066330D01*
X105678430Y-178066330D02*
X105756323Y-177910544D01*
X105756323Y-177910544D02*
X105756323Y-177598970D01*
X105756323Y-177598970D02*
X105678430Y-177443184D01*
X105678430Y-177443184D02*
X105600536Y-177365290D01*
X105600536Y-177365290D02*
X105444750Y-177287397D01*
X106379470Y-178144224D02*
X106613150Y-178222117D01*
X106613150Y-178222117D02*
X107002617Y-178222117D01*
X107002617Y-178222117D02*
X107158403Y-178144224D01*
X107158403Y-178144224D02*
X107236297Y-178066330D01*
X107236297Y-178066330D02*
X107314190Y-177910544D01*
X107314190Y-177910544D02*
X107314190Y-177754757D01*
X107314190Y-177754757D02*
X107236297Y-177598970D01*
X107236297Y-177598970D02*
X107158403Y-177521077D01*
X107158403Y-177521077D02*
X107002617Y-177443184D01*
X107002617Y-177443184D02*
X106691043Y-177365290D01*
X106691043Y-177365290D02*
X106535257Y-177287397D01*
X106535257Y-177287397D02*
X106457363Y-177209504D01*
X106457363Y-177209504D02*
X106379470Y-177053717D01*
X106379470Y-177053717D02*
X106379470Y-176897930D01*
X106379470Y-176897930D02*
X106457363Y-176742144D01*
X106457363Y-176742144D02*
X106535257Y-176664250D01*
X106535257Y-176664250D02*
X106691043Y-176586357D01*
X106691043Y-176586357D02*
X107080510Y-176586357D01*
X107080510Y-176586357D02*
X107314190Y-176664250D01*
X108794164Y-178222117D02*
X108015230Y-178222117D01*
X108015230Y-178222117D02*
X108015230Y-176586357D01*
X110274137Y-178066330D02*
X110196244Y-178144224D01*
X110196244Y-178144224D02*
X109962564Y-178222117D01*
X109962564Y-178222117D02*
X109806777Y-178222117D01*
X109806777Y-178222117D02*
X109573097Y-178144224D01*
X109573097Y-178144224D02*
X109417311Y-177988437D01*
X109417311Y-177988437D02*
X109339417Y-177832650D01*
X109339417Y-177832650D02*
X109261524Y-177521077D01*
X109261524Y-177521077D02*
X109261524Y-177287397D01*
X109261524Y-177287397D02*
X109339417Y-176975824D01*
X109339417Y-176975824D02*
X109417311Y-176820037D01*
X109417311Y-176820037D02*
X109573097Y-176664250D01*
X109573097Y-176664250D02*
X109806777Y-176586357D01*
X109806777Y-176586357D02*
X109962564Y-176586357D01*
X109962564Y-176586357D02*
X110196244Y-176664250D01*
X110196244Y-176664250D02*
X110274137Y-176742144D01*
X111208857Y-177287397D02*
X111053071Y-177209504D01*
X111053071Y-177209504D02*
X110975177Y-177131610D01*
X110975177Y-177131610D02*
X110897284Y-176975824D01*
X110897284Y-176975824D02*
X110897284Y-176897930D01*
X110897284Y-176897930D02*
X110975177Y-176742144D01*
X110975177Y-176742144D02*
X111053071Y-176664250D01*
X111053071Y-176664250D02*
X111208857Y-176586357D01*
X111208857Y-176586357D02*
X111520431Y-176586357D01*
X111520431Y-176586357D02*
X111676217Y-176664250D01*
X111676217Y-176664250D02*
X111754111Y-176742144D01*
X111754111Y-176742144D02*
X111832004Y-176897930D01*
X111832004Y-176897930D02*
X111832004Y-176975824D01*
X111832004Y-176975824D02*
X111754111Y-177131610D01*
X111754111Y-177131610D02*
X111676217Y-177209504D01*
X111676217Y-177209504D02*
X111520431Y-177287397D01*
X111520431Y-177287397D02*
X111208857Y-177287397D01*
X111208857Y-177287397D02*
X111053071Y-177365290D01*
X111053071Y-177365290D02*
X110975177Y-177443184D01*
X110975177Y-177443184D02*
X110897284Y-177598970D01*
X110897284Y-177598970D02*
X110897284Y-177910544D01*
X110897284Y-177910544D02*
X110975177Y-178066330D01*
X110975177Y-178066330D02*
X111053071Y-178144224D01*
X111053071Y-178144224D02*
X111208857Y-178222117D01*
X111208857Y-178222117D02*
X111520431Y-178222117D01*
X111520431Y-178222117D02*
X111676217Y-178144224D01*
X111676217Y-178144224D02*
X111754111Y-178066330D01*
X111754111Y-178066330D02*
X111832004Y-177910544D01*
X111832004Y-177910544D02*
X111832004Y-177598970D01*
X111832004Y-177598970D02*
X111754111Y-177443184D01*
X111754111Y-177443184D02*
X111676217Y-177365290D01*
X111676217Y-177365290D02*
X111520431Y-177287397D01*
X113234084Y-177131610D02*
X113234084Y-178222117D01*
X112844618Y-176508464D02*
X112455151Y-177676864D01*
X112455151Y-177676864D02*
X113467764Y-177676864D01*
X115259311Y-177754757D02*
X116038244Y-177754757D01*
X115103524Y-178222117D02*
X115648778Y-176586357D01*
X115648778Y-176586357D02*
X116194031Y-178222117D01*
X117440324Y-178222117D02*
X117440324Y-176586357D01*
X117440324Y-178144224D02*
X117284538Y-178222117D01*
X117284538Y-178222117D02*
X116972964Y-178222117D01*
X116972964Y-178222117D02*
X116817178Y-178144224D01*
X116817178Y-178144224D02*
X116739284Y-178066330D01*
X116739284Y-178066330D02*
X116661391Y-177910544D01*
X116661391Y-177910544D02*
X116661391Y-177443184D01*
X116661391Y-177443184D02*
X116739284Y-177287397D01*
X116739284Y-177287397D02*
X116817178Y-177209504D01*
X116817178Y-177209504D02*
X116972964Y-177131610D01*
X116972964Y-177131610D02*
X117284538Y-177131610D01*
X117284538Y-177131610D02*
X117440324Y-177209504D01*
X118920297Y-178222117D02*
X118920297Y-177365290D01*
X118920297Y-177365290D02*
X118842404Y-177209504D01*
X118842404Y-177209504D02*
X118686617Y-177131610D01*
X118686617Y-177131610D02*
X118375044Y-177131610D01*
X118375044Y-177131610D02*
X118219257Y-177209504D01*
X118920297Y-178144224D02*
X118764511Y-178222117D01*
X118764511Y-178222117D02*
X118375044Y-178222117D01*
X118375044Y-178222117D02*
X118219257Y-178144224D01*
X118219257Y-178144224D02*
X118141364Y-177988437D01*
X118141364Y-177988437D02*
X118141364Y-177832650D01*
X118141364Y-177832650D02*
X118219257Y-177676864D01*
X118219257Y-177676864D02*
X118375044Y-177598970D01*
X118375044Y-177598970D02*
X118764511Y-177598970D01*
X118764511Y-177598970D02*
X118920297Y-177521077D01*
X119699230Y-177131610D02*
X119699230Y-178767370D01*
X119699230Y-177209504D02*
X119855017Y-177131610D01*
X119855017Y-177131610D02*
X120166590Y-177131610D01*
X120166590Y-177131610D02*
X120322377Y-177209504D01*
X120322377Y-177209504D02*
X120400270Y-177287397D01*
X120400270Y-177287397D02*
X120478164Y-177443184D01*
X120478164Y-177443184D02*
X120478164Y-177910544D01*
X120478164Y-177910544D02*
X120400270Y-178066330D01*
X120400270Y-178066330D02*
X120322377Y-178144224D01*
X120322377Y-178144224D02*
X120166590Y-178222117D01*
X120166590Y-178222117D02*
X119855017Y-178222117D01*
X119855017Y-178222117D02*
X119699230Y-178144224D01*
X120945523Y-177131610D02*
X121568670Y-177131610D01*
X121179203Y-176586357D02*
X121179203Y-177988437D01*
X121179203Y-177988437D02*
X121257097Y-178144224D01*
X121257097Y-178144224D02*
X121412883Y-178222117D01*
X121412883Y-178222117D02*
X121568670Y-178222117D01*
X122737070Y-178144224D02*
X122581283Y-178222117D01*
X122581283Y-178222117D02*
X122269710Y-178222117D01*
X122269710Y-178222117D02*
X122113923Y-178144224D01*
X122113923Y-178144224D02*
X122036030Y-177988437D01*
X122036030Y-177988437D02*
X122036030Y-177365290D01*
X122036030Y-177365290D02*
X122113923Y-177209504D01*
X122113923Y-177209504D02*
X122269710Y-177131610D01*
X122269710Y-177131610D02*
X122581283Y-177131610D01*
X122581283Y-177131610D02*
X122737070Y-177209504D01*
X122737070Y-177209504D02*
X122814963Y-177365290D01*
X122814963Y-177365290D02*
X122814963Y-177521077D01*
X122814963Y-177521077D02*
X122036030Y-177676864D01*
X123516003Y-178222117D02*
X123516003Y-177131610D01*
X123516003Y-177443184D02*
X123593897Y-177287397D01*
X123593897Y-177287397D02*
X123671790Y-177209504D01*
X123671790Y-177209504D02*
X123827577Y-177131610D01*
X123827577Y-177131610D02*
X123983363Y-177131610D01*
X125541229Y-176586357D02*
X126086483Y-178222117D01*
X126086483Y-178222117D02*
X126631736Y-176586357D01*
X127099096Y-176742144D02*
X127176989Y-176664250D01*
X127176989Y-176664250D02*
X127332776Y-176586357D01*
X127332776Y-176586357D02*
X127722243Y-176586357D01*
X127722243Y-176586357D02*
X127878029Y-176664250D01*
X127878029Y-176664250D02*
X127955923Y-176742144D01*
X127955923Y-176742144D02*
X128033816Y-176897930D01*
X128033816Y-176897930D02*
X128033816Y-177053717D01*
X128033816Y-177053717D02*
X127955923Y-177287397D01*
X127955923Y-177287397D02*
X127021203Y-178222117D01*
X127021203Y-178222117D02*
X128033816Y-178222117D01*
X128734856Y-178066330D02*
X128812750Y-178144224D01*
X128812750Y-178144224D02*
X128734856Y-178222117D01*
X128734856Y-178222117D02*
X128656963Y-178144224D01*
X128656963Y-178144224D02*
X128734856Y-178066330D01*
X128734856Y-178066330D02*
X128734856Y-178222117D01*
X130370616Y-178222117D02*
X129435896Y-178222117D01*
X129903256Y-178222117D02*
X129903256Y-176586357D01*
X129903256Y-176586357D02*
X129747469Y-176820037D01*
X129747469Y-176820037D02*
X129591683Y-176975824D01*
X129591683Y-176975824D02*
X129435896Y-177053717D01*
D11*
X98374318Y-139845890D02*
X97104318Y-139845890D01*
X97104318Y-139845890D02*
X97104318Y-139362080D01*
X97104318Y-139362080D02*
X97164794Y-139241128D01*
X97164794Y-139241128D02*
X97225270Y-139180651D01*
X97225270Y-139180651D02*
X97346222Y-139120175D01*
X97346222Y-139120175D02*
X97527651Y-139120175D01*
X97527651Y-139120175D02*
X97648603Y-139180651D01*
X97648603Y-139180651D02*
X97709080Y-139241128D01*
X97709080Y-139241128D02*
X97769556Y-139362080D01*
X97769556Y-139362080D02*
X97769556Y-139845890D01*
X98374318Y-137971128D02*
X98374318Y-138575890D01*
X98374318Y-138575890D02*
X97104318Y-138575890D01*
X98253365Y-136822080D02*
X98313842Y-136882556D01*
X98313842Y-136882556D02*
X98374318Y-137063985D01*
X98374318Y-137063985D02*
X98374318Y-137184937D01*
X98374318Y-137184937D02*
X98313842Y-137366366D01*
X98313842Y-137366366D02*
X98192889Y-137487318D01*
X98192889Y-137487318D02*
X98071937Y-137547795D01*
X98071937Y-137547795D02*
X97830032Y-137608271D01*
X97830032Y-137608271D02*
X97648603Y-137608271D01*
X97648603Y-137608271D02*
X97406699Y-137547795D01*
X97406699Y-137547795D02*
X97285746Y-137487318D01*
X97285746Y-137487318D02*
X97164794Y-137366366D01*
X97164794Y-137366366D02*
X97104318Y-137184937D01*
X97104318Y-137184937D02*
X97104318Y-137063985D01*
X97104318Y-137063985D02*
X97164794Y-136882556D01*
X97164794Y-136882556D02*
X97225270Y-136822080D01*
X98253365Y-135552080D02*
X98313842Y-135612556D01*
X98313842Y-135612556D02*
X98374318Y-135793985D01*
X98374318Y-135793985D02*
X98374318Y-135914937D01*
X98374318Y-135914937D02*
X98313842Y-136096366D01*
X98313842Y-136096366D02*
X98192889Y-136217318D01*
X98192889Y-136217318D02*
X98071937Y-136277795D01*
X98071937Y-136277795D02*
X97830032Y-136338271D01*
X97830032Y-136338271D02*
X97648603Y-136338271D01*
X97648603Y-136338271D02*
X97406699Y-136277795D01*
X97406699Y-136277795D02*
X97285746Y-136217318D01*
X97285746Y-136217318D02*
X97164794Y-136096366D01*
X97164794Y-136096366D02*
X97104318Y-135914937D01*
X97104318Y-135914937D02*
X97104318Y-135793985D01*
X97104318Y-135793985D02*
X97164794Y-135612556D01*
X97164794Y-135612556D02*
X97225270Y-135552080D01*
X97648603Y-134826366D02*
X97588127Y-134947318D01*
X97588127Y-134947318D02*
X97527651Y-135007795D01*
X97527651Y-135007795D02*
X97406699Y-135068271D01*
X97406699Y-135068271D02*
X97346222Y-135068271D01*
X97346222Y-135068271D02*
X97225270Y-135007795D01*
X97225270Y-135007795D02*
X97164794Y-134947318D01*
X97164794Y-134947318D02*
X97104318Y-134826366D01*
X97104318Y-134826366D02*
X97104318Y-134584461D01*
X97104318Y-134584461D02*
X97164794Y-134463509D01*
X97164794Y-134463509D02*
X97225270Y-134403033D01*
X97225270Y-134403033D02*
X97346222Y-134342556D01*
X97346222Y-134342556D02*
X97406699Y-134342556D01*
X97406699Y-134342556D02*
X97527651Y-134403033D01*
X97527651Y-134403033D02*
X97588127Y-134463509D01*
X97588127Y-134463509D02*
X97648603Y-134584461D01*
X97648603Y-134584461D02*
X97648603Y-134826366D01*
X97648603Y-134826366D02*
X97709080Y-134947318D01*
X97709080Y-134947318D02*
X97769556Y-135007795D01*
X97769556Y-135007795D02*
X97890508Y-135068271D01*
X97890508Y-135068271D02*
X98132413Y-135068271D01*
X98132413Y-135068271D02*
X98253365Y-135007795D01*
X98253365Y-135007795D02*
X98313842Y-134947318D01*
X98313842Y-134947318D02*
X98374318Y-134826366D01*
X98374318Y-134826366D02*
X98374318Y-134584461D01*
X98374318Y-134584461D02*
X98313842Y-134463509D01*
X98313842Y-134463509D02*
X98253365Y-134403033D01*
X98253365Y-134403033D02*
X98132413Y-134342556D01*
X98132413Y-134342556D02*
X97890508Y-134342556D01*
X97890508Y-134342556D02*
X97769556Y-134403033D01*
X97769556Y-134403033D02*
X97709080Y-134463509D01*
X97709080Y-134463509D02*
X97648603Y-134584461D01*
X97527651Y-133253985D02*
X98374318Y-133253985D01*
X97043842Y-133556366D02*
X97950984Y-133858747D01*
X97950984Y-133858747D02*
X97950984Y-133072556D01*
D12*
X97229819Y-137162080D02*
X98039342Y-137162080D01*
X98039342Y-137162080D02*
X98134580Y-137114461D01*
X98134580Y-137114461D02*
X98182200Y-137066842D01*
X98182200Y-137066842D02*
X98229819Y-136971604D01*
X98229819Y-136971604D02*
X98229819Y-136781128D01*
X98229819Y-136781128D02*
X98182200Y-136685890D01*
X98182200Y-136685890D02*
X98134580Y-136638271D01*
X98134580Y-136638271D02*
X98039342Y-136590652D01*
X98039342Y-136590652D02*
X97229819Y-136590652D01*
X98229819Y-136114461D02*
X97229819Y-136114461D01*
X97229819Y-136114461D02*
X98229819Y-135543033D01*
X98229819Y-135543033D02*
X97229819Y-135543033D01*
X98229819Y-135066842D02*
X97229819Y-135066842D01*
X98229819Y-134495414D02*
X97658390Y-134923985D01*
X97229819Y-134495414D02*
X97801247Y-135066842D01*
X98325057Y-134304938D02*
X98325057Y-133543033D01*
X98229819Y-133304937D02*
X97229819Y-133304937D01*
X97706009Y-133304937D02*
X97706009Y-132733509D01*
X98229819Y-132733509D02*
X97229819Y-132733509D01*
X97229819Y-132066842D02*
X97229819Y-131876366D01*
X97229819Y-131876366D02*
X97277438Y-131781128D01*
X97277438Y-131781128D02*
X97372676Y-131685890D01*
X97372676Y-131685890D02*
X97563152Y-131638271D01*
X97563152Y-131638271D02*
X97896485Y-131638271D01*
X97896485Y-131638271D02*
X98086961Y-131685890D01*
X98086961Y-131685890D02*
X98182200Y-131781128D01*
X98182200Y-131781128D02*
X98229819Y-131876366D01*
X98229819Y-131876366D02*
X98229819Y-132066842D01*
X98229819Y-132066842D02*
X98182200Y-132162080D01*
X98182200Y-132162080D02*
X98086961Y-132257318D01*
X98086961Y-132257318D02*
X97896485Y-132304937D01*
X97896485Y-132304937D02*
X97563152Y-132304937D01*
X97563152Y-132304937D02*
X97372676Y-132257318D01*
X97372676Y-132257318D02*
X97277438Y-132162080D01*
X97277438Y-132162080D02*
X97229819Y-132066842D01*
X98229819Y-130733509D02*
X98229819Y-131209699D01*
X98229819Y-131209699D02*
X97229819Y-131209699D01*
X97706009Y-130400175D02*
X97706009Y-130066842D01*
X98229819Y-129923985D02*
X98229819Y-130400175D01*
X98229819Y-130400175D02*
X97229819Y-130400175D01*
X97229819Y-130400175D02*
X97229819Y-129923985D01*
X98325057Y-129733509D02*
X98325057Y-128971604D01*
X97229819Y-128828746D02*
X97229819Y-128209699D01*
X97229819Y-128209699D02*
X97610771Y-128543032D01*
X97610771Y-128543032D02*
X97610771Y-128400175D01*
X97610771Y-128400175D02*
X97658390Y-128304937D01*
X97658390Y-128304937D02*
X97706009Y-128257318D01*
X97706009Y-128257318D02*
X97801247Y-128209699D01*
X97801247Y-128209699D02*
X98039342Y-128209699D01*
X98039342Y-128209699D02*
X98134580Y-128257318D01*
X98134580Y-128257318D02*
X98182200Y-128304937D01*
X98182200Y-128304937D02*
X98229819Y-128400175D01*
X98229819Y-128400175D02*
X98229819Y-128685889D01*
X98229819Y-128685889D02*
X98182200Y-128781127D01*
X98182200Y-128781127D02*
X98134580Y-128828746D01*
X104849819Y-144782080D02*
X105659342Y-144782080D01*
X105659342Y-144782080D02*
X105754580Y-144734461D01*
X105754580Y-144734461D02*
X105802200Y-144686842D01*
X105802200Y-144686842D02*
X105849819Y-144591604D01*
X105849819Y-144591604D02*
X105849819Y-144401128D01*
X105849819Y-144401128D02*
X105802200Y-144305890D01*
X105802200Y-144305890D02*
X105754580Y-144258271D01*
X105754580Y-144258271D02*
X105659342Y-144210652D01*
X105659342Y-144210652D02*
X104849819Y-144210652D01*
X105849819Y-143734461D02*
X104849819Y-143734461D01*
X104849819Y-143734461D02*
X105849819Y-143163033D01*
X105849819Y-143163033D02*
X104849819Y-143163033D01*
X105849819Y-142686842D02*
X104849819Y-142686842D01*
X105849819Y-142115414D02*
X105278390Y-142543985D01*
X104849819Y-142115414D02*
X105421247Y-142686842D01*
X105945057Y-141924938D02*
X105945057Y-141163033D01*
X105849819Y-140924937D02*
X104849819Y-140924937D01*
X105326009Y-140924937D02*
X105326009Y-140353509D01*
X105849819Y-140353509D02*
X104849819Y-140353509D01*
X104849819Y-139686842D02*
X104849819Y-139496366D01*
X104849819Y-139496366D02*
X104897438Y-139401128D01*
X104897438Y-139401128D02*
X104992676Y-139305890D01*
X104992676Y-139305890D02*
X105183152Y-139258271D01*
X105183152Y-139258271D02*
X105516485Y-139258271D01*
X105516485Y-139258271D02*
X105706961Y-139305890D01*
X105706961Y-139305890D02*
X105802200Y-139401128D01*
X105802200Y-139401128D02*
X105849819Y-139496366D01*
X105849819Y-139496366D02*
X105849819Y-139686842D01*
X105849819Y-139686842D02*
X105802200Y-139782080D01*
X105802200Y-139782080D02*
X105706961Y-139877318D01*
X105706961Y-139877318D02*
X105516485Y-139924937D01*
X105516485Y-139924937D02*
X105183152Y-139924937D01*
X105183152Y-139924937D02*
X104992676Y-139877318D01*
X104992676Y-139877318D02*
X104897438Y-139782080D01*
X104897438Y-139782080D02*
X104849819Y-139686842D01*
X105849819Y-138353509D02*
X105849819Y-138829699D01*
X105849819Y-138829699D02*
X104849819Y-138829699D01*
X105326009Y-138020175D02*
X105326009Y-137686842D01*
X105849819Y-137543985D02*
X105849819Y-138020175D01*
X105849819Y-138020175D02*
X104849819Y-138020175D01*
X104849819Y-138020175D02*
X104849819Y-137543985D01*
X105945057Y-137353509D02*
X105945057Y-136591604D01*
X105849819Y-135829699D02*
X105849819Y-136401127D01*
X105849819Y-136115413D02*
X104849819Y-136115413D01*
X104849819Y-136115413D02*
X104992676Y-136210651D01*
X104992676Y-136210651D02*
X105087914Y-136305889D01*
X105087914Y-136305889D02*
X105135533Y-136401127D01*
X140206666Y-168854819D02*
X140206666Y-169569104D01*
X140206666Y-169569104D02*
X140159047Y-169711961D01*
X140159047Y-169711961D02*
X140063809Y-169807200D01*
X140063809Y-169807200D02*
X139920952Y-169854819D01*
X139920952Y-169854819D02*
X139825714Y-169854819D01*
X141111428Y-169188152D02*
X141111428Y-169854819D01*
X140873333Y-168807200D02*
X140635238Y-169521485D01*
X140635238Y-169521485D02*
X141254285Y-169521485D01*
D11*
X96404048Y-174274318D02*
X95980714Y-173669556D01*
X95678333Y-174274318D02*
X95678333Y-173004318D01*
X95678333Y-173004318D02*
X96162143Y-173004318D01*
X96162143Y-173004318D02*
X96283095Y-173064794D01*
X96283095Y-173064794D02*
X96343572Y-173125270D01*
X96343572Y-173125270D02*
X96404048Y-173246222D01*
X96404048Y-173246222D02*
X96404048Y-173427651D01*
X96404048Y-173427651D02*
X96343572Y-173548603D01*
X96343572Y-173548603D02*
X96283095Y-173609080D01*
X96283095Y-173609080D02*
X96162143Y-173669556D01*
X96162143Y-173669556D02*
X95678333Y-173669556D01*
X96887857Y-173911461D02*
X97492619Y-173911461D01*
X96766905Y-174274318D02*
X97190238Y-173004318D01*
X97190238Y-173004318D02*
X97613572Y-174274318D01*
X97915952Y-173004318D02*
X98702143Y-173004318D01*
X98702143Y-173004318D02*
X98278809Y-173488127D01*
X98278809Y-173488127D02*
X98460238Y-173488127D01*
X98460238Y-173488127D02*
X98581190Y-173548603D01*
X98581190Y-173548603D02*
X98641666Y-173609080D01*
X98641666Y-173609080D02*
X98702143Y-173730032D01*
X98702143Y-173730032D02*
X98702143Y-174032413D01*
X98702143Y-174032413D02*
X98641666Y-174153365D01*
X98641666Y-174153365D02*
X98581190Y-174213842D01*
X98581190Y-174213842D02*
X98460238Y-174274318D01*
X98460238Y-174274318D02*
X98097381Y-174274318D01*
X98097381Y-174274318D02*
X97976428Y-174213842D01*
X97976428Y-174213842D02*
X97915952Y-174153365D01*
D12*
X104849819Y-137162080D02*
X105659342Y-137162080D01*
X105659342Y-137162080D02*
X105754580Y-137114461D01*
X105754580Y-137114461D02*
X105802200Y-137066842D01*
X105802200Y-137066842D02*
X105849819Y-136971604D01*
X105849819Y-136971604D02*
X105849819Y-136781128D01*
X105849819Y-136781128D02*
X105802200Y-136685890D01*
X105802200Y-136685890D02*
X105754580Y-136638271D01*
X105754580Y-136638271D02*
X105659342Y-136590652D01*
X105659342Y-136590652D02*
X104849819Y-136590652D01*
X105849819Y-136114461D02*
X104849819Y-136114461D01*
X104849819Y-136114461D02*
X105849819Y-135543033D01*
X105849819Y-135543033D02*
X104849819Y-135543033D01*
X105849819Y-135066842D02*
X104849819Y-135066842D01*
X105849819Y-134495414D02*
X105278390Y-134923985D01*
X104849819Y-134495414D02*
X105421247Y-135066842D01*
X105945057Y-134304938D02*
X105945057Y-133543033D01*
X105849819Y-133304937D02*
X104849819Y-133304937D01*
X105326009Y-133304937D02*
X105326009Y-132733509D01*
X105849819Y-132733509D02*
X104849819Y-132733509D01*
X104849819Y-132066842D02*
X104849819Y-131876366D01*
X104849819Y-131876366D02*
X104897438Y-131781128D01*
X104897438Y-131781128D02*
X104992676Y-131685890D01*
X104992676Y-131685890D02*
X105183152Y-131638271D01*
X105183152Y-131638271D02*
X105516485Y-131638271D01*
X105516485Y-131638271D02*
X105706961Y-131685890D01*
X105706961Y-131685890D02*
X105802200Y-131781128D01*
X105802200Y-131781128D02*
X105849819Y-131876366D01*
X105849819Y-131876366D02*
X105849819Y-132066842D01*
X105849819Y-132066842D02*
X105802200Y-132162080D01*
X105802200Y-132162080D02*
X105706961Y-132257318D01*
X105706961Y-132257318D02*
X105516485Y-132304937D01*
X105516485Y-132304937D02*
X105183152Y-132304937D01*
X105183152Y-132304937D02*
X104992676Y-132257318D01*
X104992676Y-132257318D02*
X104897438Y-132162080D01*
X104897438Y-132162080D02*
X104849819Y-132066842D01*
X105849819Y-130733509D02*
X105849819Y-131209699D01*
X105849819Y-131209699D02*
X104849819Y-131209699D01*
X105326009Y-130400175D02*
X105326009Y-130066842D01*
X105849819Y-129923985D02*
X105849819Y-130400175D01*
X105849819Y-130400175D02*
X104849819Y-130400175D01*
X104849819Y-130400175D02*
X104849819Y-129923985D01*
X105945057Y-129733509D02*
X105945057Y-128971604D01*
X104849819Y-128543032D02*
X104849819Y-128447794D01*
X104849819Y-128447794D02*
X104897438Y-128352556D01*
X104897438Y-128352556D02*
X104945057Y-128304937D01*
X104945057Y-128304937D02*
X105040295Y-128257318D01*
X105040295Y-128257318D02*
X105230771Y-128209699D01*
X105230771Y-128209699D02*
X105468866Y-128209699D01*
X105468866Y-128209699D02*
X105659342Y-128257318D01*
X105659342Y-128257318D02*
X105754580Y-128304937D01*
X105754580Y-128304937D02*
X105802200Y-128352556D01*
X105802200Y-128352556D02*
X105849819Y-128447794D01*
X105849819Y-128447794D02*
X105849819Y-128543032D01*
X105849819Y-128543032D02*
X105802200Y-128638270D01*
X105802200Y-128638270D02*
X105754580Y-128685889D01*
X105754580Y-128685889D02*
X105659342Y-128733508D01*
X105659342Y-128733508D02*
X105468866Y-128781127D01*
X105468866Y-128781127D02*
X105230771Y-128781127D01*
X105230771Y-128781127D02*
X105040295Y-128733508D01*
X105040295Y-128733508D02*
X104945057Y-128685889D01*
X104945057Y-128685889D02*
X104897438Y-128638270D01*
X104897438Y-128638270D02*
X104849819Y-128543032D01*
X82648095Y-113784819D02*
X82648095Y-112784819D01*
X82648095Y-113261009D02*
X83219523Y-113261009D01*
X83219523Y-113784819D02*
X83219523Y-112784819D01*
X84219523Y-113784819D02*
X83648095Y-113784819D01*
X83933809Y-113784819D02*
X83933809Y-112784819D01*
X83933809Y-112784819D02*
X83838571Y-112927676D01*
X83838571Y-112927676D02*
X83743333Y-113022914D01*
X83743333Y-113022914D02*
X83648095Y-113070533D01*
X81836666Y-109954819D02*
X81836666Y-110669104D01*
X81836666Y-110669104D02*
X81789047Y-110811961D01*
X81789047Y-110811961D02*
X81693809Y-110907200D01*
X81693809Y-110907200D02*
X81550952Y-110954819D01*
X81550952Y-110954819D02*
X81455714Y-110954819D01*
X82836666Y-110954819D02*
X82265238Y-110954819D01*
X82550952Y-110954819D02*
X82550952Y-109954819D01*
X82550952Y-109954819D02*
X82455714Y-110097676D01*
X82455714Y-110097676D02*
X82360476Y-110192914D01*
X82360476Y-110192914D02*
X82265238Y-110240533D01*
D11*
X96679048Y-113104318D02*
X96255714Y-112499556D01*
X95953333Y-113104318D02*
X95953333Y-111834318D01*
X95953333Y-111834318D02*
X96437143Y-111834318D01*
X96437143Y-111834318D02*
X96558095Y-111894794D01*
X96558095Y-111894794D02*
X96618572Y-111955270D01*
X96618572Y-111955270D02*
X96679048Y-112076222D01*
X96679048Y-112076222D02*
X96679048Y-112257651D01*
X96679048Y-112257651D02*
X96618572Y-112378603D01*
X96618572Y-112378603D02*
X96558095Y-112439080D01*
X96558095Y-112439080D02*
X96437143Y-112499556D01*
X96437143Y-112499556D02*
X95953333Y-112499556D01*
X97162857Y-112741461D02*
X97767619Y-112741461D01*
X97041905Y-113104318D02*
X97465238Y-111834318D01*
X97465238Y-111834318D02*
X97888572Y-113104318D01*
X98977143Y-113104318D02*
X98251428Y-113104318D01*
X98614285Y-113104318D02*
X98614285Y-111834318D01*
X98614285Y-111834318D02*
X98493333Y-112015746D01*
X98493333Y-112015746D02*
X98372381Y-112136699D01*
X98372381Y-112136699D02*
X98251428Y-112197175D01*
D12*
X125206666Y-169034819D02*
X125206666Y-169749104D01*
X125206666Y-169749104D02*
X125159047Y-169891961D01*
X125159047Y-169891961D02*
X125063809Y-169987200D01*
X125063809Y-169987200D02*
X124920952Y-170034819D01*
X124920952Y-170034819D02*
X124825714Y-170034819D01*
X125587619Y-169034819D02*
X126206666Y-169034819D01*
X126206666Y-169034819D02*
X125873333Y-169415771D01*
X125873333Y-169415771D02*
X126016190Y-169415771D01*
X126016190Y-169415771D02*
X126111428Y-169463390D01*
X126111428Y-169463390D02*
X126159047Y-169511009D01*
X126159047Y-169511009D02*
X126206666Y-169606247D01*
X126206666Y-169606247D02*
X126206666Y-169844342D01*
X126206666Y-169844342D02*
X126159047Y-169939580D01*
X126159047Y-169939580D02*
X126111428Y-169987200D01*
X126111428Y-169987200D02*
X126016190Y-170034819D01*
X126016190Y-170034819D02*
X125730476Y-170034819D01*
X125730476Y-170034819D02*
X125635238Y-169987200D01*
X125635238Y-169987200D02*
X125587619Y-169939580D01*
X72238095Y-172804819D02*
X72238095Y-171804819D01*
X72238095Y-172281009D02*
X72809523Y-172281009D01*
X72809523Y-172804819D02*
X72809523Y-171804819D01*
X73238095Y-171900057D02*
X73285714Y-171852438D01*
X73285714Y-171852438D02*
X73380952Y-171804819D01*
X73380952Y-171804819D02*
X73619047Y-171804819D01*
X73619047Y-171804819D02*
X73714285Y-171852438D01*
X73714285Y-171852438D02*
X73761904Y-171900057D01*
X73761904Y-171900057D02*
X73809523Y-171995295D01*
X73809523Y-171995295D02*
X73809523Y-172090533D01*
X73809523Y-172090533D02*
X73761904Y-172233390D01*
X73761904Y-172233390D02*
X73190476Y-172804819D01*
X73190476Y-172804819D02*
X73809523Y-172804819D01*
D11*
X136095000Y-106704318D02*
X136095000Y-105434318D01*
X136095000Y-105434318D02*
X136397381Y-105434318D01*
X136397381Y-105434318D02*
X136578810Y-105494794D01*
X136578810Y-105494794D02*
X136699762Y-105615746D01*
X136699762Y-105615746D02*
X136760239Y-105736699D01*
X136760239Y-105736699D02*
X136820715Y-105978603D01*
X136820715Y-105978603D02*
X136820715Y-106160032D01*
X136820715Y-106160032D02*
X136760239Y-106401937D01*
X136760239Y-106401937D02*
X136699762Y-106522889D01*
X136699762Y-106522889D02*
X136578810Y-106643842D01*
X136578810Y-106643842D02*
X136397381Y-106704318D01*
X136397381Y-106704318D02*
X136095000Y-106704318D01*
X137304524Y-106341461D02*
X137909286Y-106341461D01*
X137183572Y-106704318D02*
X137606905Y-105434318D01*
X137606905Y-105434318D02*
X138030239Y-106704318D01*
X138272143Y-105434318D02*
X138997857Y-105434318D01*
X138635000Y-106704318D02*
X138635000Y-105434318D01*
X139360714Y-106341461D02*
X139965476Y-106341461D01*
X139239762Y-106704318D02*
X139663095Y-105434318D01*
X139663095Y-105434318D02*
X140086429Y-106704318D01*
X140509761Y-106704318D02*
X140509761Y-105434318D01*
X140509761Y-105434318D02*
X140933095Y-106341461D01*
X140933095Y-106341461D02*
X141356428Y-105434318D01*
X141356428Y-105434318D02*
X141356428Y-106704318D01*
X141900714Y-106341461D02*
X142505476Y-106341461D01*
X141779762Y-106704318D02*
X142203095Y-105434318D01*
X142203095Y-105434318D02*
X142626429Y-106704318D01*
X143049761Y-106704318D02*
X143049761Y-105434318D01*
X143049761Y-105434318D02*
X143775476Y-106704318D01*
X143775476Y-106704318D02*
X143775476Y-105434318D01*
X144622142Y-105434318D02*
X144743095Y-105434318D01*
X144743095Y-105434318D02*
X144864047Y-105494794D01*
X144864047Y-105494794D02*
X144924523Y-105555270D01*
X144924523Y-105555270D02*
X144984999Y-105676222D01*
X144984999Y-105676222D02*
X145045476Y-105918127D01*
X145045476Y-105918127D02*
X145045476Y-106220508D01*
X145045476Y-106220508D02*
X144984999Y-106462413D01*
X144984999Y-106462413D02*
X144924523Y-106583365D01*
X144924523Y-106583365D02*
X144864047Y-106643842D01*
X144864047Y-106643842D02*
X144743095Y-106704318D01*
X144743095Y-106704318D02*
X144622142Y-106704318D01*
X144622142Y-106704318D02*
X144501190Y-106643842D01*
X144501190Y-106643842D02*
X144440714Y-106583365D01*
X144440714Y-106583365D02*
X144380237Y-106462413D01*
X144380237Y-106462413D02*
X144319761Y-106220508D01*
X144319761Y-106220508D02*
X144319761Y-105918127D01*
X144319761Y-105918127D02*
X144380237Y-105676222D01*
X144380237Y-105676222D02*
X144440714Y-105555270D01*
X144440714Y-105555270D02*
X144501190Y-105494794D01*
X144501190Y-105494794D02*
X144622142Y-105434318D01*
D12*
X71666666Y-120264819D02*
X71666666Y-120979104D01*
X71666666Y-120979104D02*
X71619047Y-121121961D01*
X71619047Y-121121961D02*
X71523809Y-121217200D01*
X71523809Y-121217200D02*
X71380952Y-121264819D01*
X71380952Y-121264819D02*
X71285714Y-121264819D01*
X72095238Y-120360057D02*
X72142857Y-120312438D01*
X72142857Y-120312438D02*
X72238095Y-120264819D01*
X72238095Y-120264819D02*
X72476190Y-120264819D01*
X72476190Y-120264819D02*
X72571428Y-120312438D01*
X72571428Y-120312438D02*
X72619047Y-120360057D01*
X72619047Y-120360057D02*
X72666666Y-120455295D01*
X72666666Y-120455295D02*
X72666666Y-120550533D01*
X72666666Y-120550533D02*
X72619047Y-120693390D01*
X72619047Y-120693390D02*
X72047619Y-121264819D01*
X72047619Y-121264819D02*
X72666666Y-121264819D01*
X97229819Y-144782080D02*
X98039342Y-144782080D01*
X98039342Y-144782080D02*
X98134580Y-144734461D01*
X98134580Y-144734461D02*
X98182200Y-144686842D01*
X98182200Y-144686842D02*
X98229819Y-144591604D01*
X98229819Y-144591604D02*
X98229819Y-144401128D01*
X98229819Y-144401128D02*
X98182200Y-144305890D01*
X98182200Y-144305890D02*
X98134580Y-144258271D01*
X98134580Y-144258271D02*
X98039342Y-144210652D01*
X98039342Y-144210652D02*
X97229819Y-144210652D01*
X98229819Y-143734461D02*
X97229819Y-143734461D01*
X97229819Y-143734461D02*
X98229819Y-143163033D01*
X98229819Y-143163033D02*
X97229819Y-143163033D01*
X98229819Y-142686842D02*
X97229819Y-142686842D01*
X98229819Y-142115414D02*
X97658390Y-142543985D01*
X97229819Y-142115414D02*
X97801247Y-142686842D01*
X98325057Y-141924938D02*
X98325057Y-141163033D01*
X98229819Y-140924937D02*
X97229819Y-140924937D01*
X97706009Y-140924937D02*
X97706009Y-140353509D01*
X98229819Y-140353509D02*
X97229819Y-140353509D01*
X97229819Y-139686842D02*
X97229819Y-139496366D01*
X97229819Y-139496366D02*
X97277438Y-139401128D01*
X97277438Y-139401128D02*
X97372676Y-139305890D01*
X97372676Y-139305890D02*
X97563152Y-139258271D01*
X97563152Y-139258271D02*
X97896485Y-139258271D01*
X97896485Y-139258271D02*
X98086961Y-139305890D01*
X98086961Y-139305890D02*
X98182200Y-139401128D01*
X98182200Y-139401128D02*
X98229819Y-139496366D01*
X98229819Y-139496366D02*
X98229819Y-139686842D01*
X98229819Y-139686842D02*
X98182200Y-139782080D01*
X98182200Y-139782080D02*
X98086961Y-139877318D01*
X98086961Y-139877318D02*
X97896485Y-139924937D01*
X97896485Y-139924937D02*
X97563152Y-139924937D01*
X97563152Y-139924937D02*
X97372676Y-139877318D01*
X97372676Y-139877318D02*
X97277438Y-139782080D01*
X97277438Y-139782080D02*
X97229819Y-139686842D01*
X98229819Y-138353509D02*
X98229819Y-138829699D01*
X98229819Y-138829699D02*
X97229819Y-138829699D01*
X97706009Y-138020175D02*
X97706009Y-137686842D01*
X98229819Y-137543985D02*
X98229819Y-138020175D01*
X98229819Y-138020175D02*
X97229819Y-138020175D01*
X97229819Y-138020175D02*
X97229819Y-137543985D01*
X98325057Y-137353509D02*
X98325057Y-136591604D01*
X97325057Y-136401127D02*
X97277438Y-136353508D01*
X97277438Y-136353508D02*
X97229819Y-136258270D01*
X97229819Y-136258270D02*
X97229819Y-136020175D01*
X97229819Y-136020175D02*
X97277438Y-135924937D01*
X97277438Y-135924937D02*
X97325057Y-135877318D01*
X97325057Y-135877318D02*
X97420295Y-135829699D01*
X97420295Y-135829699D02*
X97515533Y-135829699D01*
X97515533Y-135829699D02*
X97658390Y-135877318D01*
X97658390Y-135877318D02*
X98229819Y-136448746D01*
X98229819Y-136448746D02*
X98229819Y-135829699D01*
D11*
X70354318Y-138455951D02*
X69749556Y-138879285D01*
X70354318Y-139181666D02*
X69084318Y-139181666D01*
X69084318Y-139181666D02*
X69084318Y-138697856D01*
X69084318Y-138697856D02*
X69144794Y-138576904D01*
X69144794Y-138576904D02*
X69205270Y-138516427D01*
X69205270Y-138516427D02*
X69326222Y-138455951D01*
X69326222Y-138455951D02*
X69507651Y-138455951D01*
X69507651Y-138455951D02*
X69628603Y-138516427D01*
X69628603Y-138516427D02*
X69689080Y-138576904D01*
X69689080Y-138576904D02*
X69749556Y-138697856D01*
X69749556Y-138697856D02*
X69749556Y-139181666D01*
X69991461Y-137972142D02*
X69991461Y-137367380D01*
X70354318Y-138093094D02*
X69084318Y-137669761D01*
X69084318Y-137669761D02*
X70354318Y-137246427D01*
X69205270Y-136883571D02*
X69144794Y-136823095D01*
X69144794Y-136823095D02*
X69084318Y-136702142D01*
X69084318Y-136702142D02*
X69084318Y-136399761D01*
X69084318Y-136399761D02*
X69144794Y-136278809D01*
X69144794Y-136278809D02*
X69205270Y-136218333D01*
X69205270Y-136218333D02*
X69326222Y-136157856D01*
X69326222Y-136157856D02*
X69447175Y-136157856D01*
X69447175Y-136157856D02*
X69628603Y-136218333D01*
X69628603Y-136218333D02*
X70354318Y-136944047D01*
X70354318Y-136944047D02*
X70354318Y-136157856D01*
D13*
%TO.C,PLCC84*%
X116740000Y-136519700D02*
G75*
G02*
X116640000Y-136519700I-50000J0D01*
G01*
X116640000Y-136519700D02*
G75*
G02*
X116740000Y-136519700I50000J0D01*
G01*
X116740000Y-136519700D02*
X116740000Y-136519700D01*
X116640000Y-136519700D02*
X116640000Y-136519700D01*
D14*
X116130000Y-154849700D02*
X79470000Y-154849700D01*
X116130000Y-121189700D02*
X116130000Y-154849700D01*
X113130000Y-118189700D02*
X116130000Y-121189700D01*
X79470000Y-154849700D02*
X79470000Y-118189700D01*
X79470000Y-118189700D02*
X113130000Y-118189700D01*
%TO.C,J4*%
X136730000Y-106730000D02*
X144350000Y-106730000D01*
X136730000Y-167690000D02*
X136730000Y-106730000D01*
X144350000Y-167690000D02*
X136730000Y-167690000D01*
X144350000Y-167690000D02*
X144350000Y-106730000D01*
X138100000Y-106080000D02*
G75*
G02*
X137900000Y-106080000I-100000J0D01*
G01*
X137900000Y-106080000D02*
G75*
G02*
X138100000Y-106080000I100000J0D01*
G01*
D13*
%TO.C,RA3*%
X85200000Y-170000000D02*
X85200000Y-170000000D01*
X85300000Y-170000000D02*
X85300000Y-170000000D01*
D14*
X85760000Y-168755000D02*
X111110000Y-168755000D01*
X85760000Y-171245000D02*
X85760000Y-168755000D01*
X111110000Y-168755000D02*
X111110000Y-171245000D01*
X111110000Y-171245000D02*
X85760000Y-171245000D01*
D13*
X85200000Y-170000000D02*
G75*
G02*
X85300000Y-170000000I50000J0D01*
G01*
X85300000Y-170000000D02*
G75*
G02*
X85200000Y-170000000I-50000J0D01*
G01*
D14*
%TO.C,J1*%
X76460000Y-109270000D02*
X76460000Y-106730000D01*
X81540000Y-106730000D02*
X76460000Y-106730000D01*
X81540000Y-106730000D02*
X81540000Y-109270000D01*
X81540000Y-109270000D02*
X76460000Y-109270000D01*
X75910000Y-108000000D02*
G75*
G02*
X75710000Y-108000000I-100000J0D01*
G01*
X75710000Y-108000000D02*
G75*
G02*
X75910000Y-108000000I100000J0D01*
G01*
D13*
%TO.C,RA1*%
X84200000Y-109000000D02*
X84200000Y-109000000D01*
X84300000Y-109000000D02*
X84300000Y-109000000D01*
D14*
X84760000Y-107755000D02*
X110110000Y-107755000D01*
X84760000Y-110245000D02*
X84760000Y-107755000D01*
X110110000Y-107755000D02*
X110110000Y-110245000D01*
X110110000Y-110245000D02*
X84760000Y-110245000D01*
D13*
X84200000Y-109000000D02*
G75*
G02*
X84300000Y-109000000I50000J0D01*
G01*
X84300000Y-109000000D02*
G75*
G02*
X84200000Y-109000000I-50000J0D01*
G01*
D14*
%TO.C,J3*%
X121730000Y-106730000D02*
X129350000Y-106730000D01*
X121730000Y-167690000D02*
X121730000Y-106730000D01*
X129350000Y-167690000D02*
X121730000Y-167690000D01*
X129350000Y-167690000D02*
X129350000Y-106730000D01*
X123100000Y-106080000D02*
G75*
G02*
X122900000Y-106080000I-100000J0D01*
G01*
X122900000Y-106080000D02*
G75*
G02*
X123100000Y-106080000I100000J0D01*
G01*
%TO.C,DATAMAN0*%
X130725000Y-106730000D02*
X130725000Y-108000000D01*
X130725000Y-167690000D02*
X148515000Y-167690000D01*
X148515000Y-106730000D02*
X130725000Y-106730000D01*
%TO.C,J2*%
X69460000Y-106650000D02*
X74540000Y-106650000D01*
X69460000Y-119350000D02*
X69460000Y-106650000D01*
X74540000Y-119350000D02*
X69460000Y-119350000D01*
X74540000Y-119350000D02*
X74540000Y-106650000D01*
X70830000Y-106000000D02*
G75*
G02*
X70630000Y-106000000I-100000J0D01*
G01*
X70630000Y-106000000D02*
G75*
G02*
X70830000Y-106000000I100000J0D01*
G01*
%TO.C,RA2*%
X72755000Y-123760000D02*
X75245000Y-123760000D01*
X72755000Y-149110000D02*
X72755000Y-123760000D01*
D13*
X74000000Y-123200000D02*
X74000000Y-123200000D01*
X74000000Y-123300000D02*
X74000000Y-123300000D01*
D14*
X75245000Y-123760000D02*
X75245000Y-149110000D01*
X75245000Y-149110000D02*
X72755000Y-149110000D01*
D13*
X74000000Y-123200000D02*
G75*
G02*
X74000000Y-123300000I0J-50000D01*
G01*
X74000000Y-123300000D02*
G75*
G02*
X74000000Y-123200000I0J50000D01*
G01*
%TD*%
M02*
