M48
METRIC
T1C0.300
T2C0.750
T3C0.800
T4C0.813
%
G90
G05
T1
X94.33Y-71.77
X111.626Y-71.896
X112.006Y-127.169
X112.859Y-113.22
X113.219Y-82.811
X113.48Y-97.27
X114.507Y-93.66
X114.74Y-94.75
X114.843Y-87.596
X116.008Y-87.621
X116.086Y-85.527
X117.015Y-105.026
X117.651Y-98.533
X117.67Y-107.93
X117.786Y-83.59
X118.16Y-81.506
X118.16Y-130.936
X118.249Y-102.734
X118.3Y-122.01
X118.69Y-115.04
X119.126Y-87.067
X119.57Y-125.18
X119.783Y-104.093
X119.945Y-105.716
X120.973Y-101.556
X121.319Y-90.953
X121.559Y-108.263
X122.246Y-83.592
X122.358Y-107.361
X122.377Y-104.266
X123.236Y-89.233
X124.446Y-81.752
X124.9Y-92.71
X126.218Y-98.778
X126.963Y-88.245
X127.43Y-67.37
X127.505Y-82.275
X127.546Y-106.673
X127.552Y-94.453
X127.69Y-89.79
X128.946Y-83.891
X131.26Y-106.44
X131.7Y-90.535
X131.706Y-96.954
X132.609Y-95.657
X132.896Y-89.152
X133.336Y-97.913
X134.16Y-136.22
X134.67Y-78.75
X134.905Y-100.453
X135.814Y-92.72
X136.41Y-145.0
X136.436Y-139.44
X137.21Y-96.76
X137.533Y-105.236
X137.706Y-104.28
X137.918Y-102.843
X139.185Y-88.957
X139.976Y-93.267
X140.427Y-81.719
X141.278Y-94.571
X141.78Y-96.76
X143.218Y-102.763
X143.593Y-82.604
X144.044Y-92.523
X144.874Y-92.643
X145.369Y-102.702
X146.441Y-89.203
X146.72Y-79.13
X147.057Y-95.737
X147.358Y-89.565
X147.57Y-88.691
X147.85Y-133.19
X148.05Y-131.15
X149.947Y-127.169
X151.076Y-95.238
X151.61Y-110.45
X152.101Y-94.346
X152.501Y-92.741
X152.72Y-105.85
X153.047Y-122.095
X153.635Y-90.093
X153.858Y-92.975
X154.842Y-123.734
X155.008Y-113.234
X155.044Y-88.033
X156.547Y-98.176
X156.547Y-100.799
X156.882Y-95.129
X156.919Y-92.506
X156.949Y-93.727
X157.873Y-113.073
X158.309Y-92.566
X158.33Y-133.99
X158.616Y-67.111
X159.332Y-109.112
X159.49Y-103.05
X159.531Y-110.456
X159.69Y-130.6
X160.762Y-82.744
X160.8Y-89.99
X160.89Y-95.02
X160.89Y-110.74
X160.89Y-113.81
X161.77Y-112.305
X162.164Y-89.173
X162.267Y-101.593
X162.623Y-103.493
X162.96Y-96.76
X162.964Y-101.126
X162.97Y-101.975
X163.34Y-106.92
X163.759Y-99.632
X164.11Y-128.48
X164.281Y-93.679
X164.396Y-88.749
X164.396Y-94.659
X164.54Y-105.21
X164.613Y-92.631
X165.14Y-98.54
X165.38Y-105.81
X165.76Y-122.65
X165.79Y-103.214
X165.88Y-114.15
X166.52Y-78.12
X166.685Y-106.132
X167.285Y-108.485
X168.115Y-93.545
X169.378Y-108.485
X169.478Y-88.749
X170.126Y-109.898
X170.71Y-92.566
X171.482Y-141.484
X171.731Y-87.625
X173.065Y-118.871
X173.837Y-116.064
X174.032Y-114.487
X174.13Y-96.51
X174.223Y-109.178
X175.575Y-138.686
X175.58Y-121.95
X175.75Y-125.54
X175.842Y-130.178
X175.89Y-116.31
X177.17Y-96.0
X177.75Y-132.29
X178.788Y-73.972
X178.814Y-82.838
X178.844Y-67.52
X179.622Y-73.149
X180.006Y-118.303
X180.961Y-109.436
X181.734Y-144.846
X181.734Y-71.016
X182.506Y-88.749
X184.567Y-91.312
T2
X112.36Y-70.31
X112.36Y-85.55
X114.9Y-70.31
X114.9Y-85.55
X117.44Y-70.31
X117.44Y-85.55
X119.98Y-70.31
X119.98Y-85.55
X122.52Y-70.31
X122.52Y-85.55
X125.06Y-70.31
X125.06Y-85.55
X127.6Y-70.31
X127.6Y-85.55
X130.14Y-70.31
X130.14Y-85.55
X132.68Y-70.31
X132.68Y-85.55
X135.22Y-70.31
X135.22Y-85.55
X137.76Y-70.31
X137.76Y-85.55
X140.3Y-70.31
X140.3Y-85.55
X142.84Y-70.31
X142.84Y-85.55
X145.38Y-70.31
X145.38Y-85.55
X147.92Y-70.31
X147.92Y-85.55
X150.46Y-70.31
X150.46Y-85.55
X153.0Y-70.31
X153.0Y-85.55
X155.54Y-70.31
X155.54Y-85.55
X158.08Y-70.31
X158.08Y-85.55
X160.62Y-70.31
X160.62Y-85.55
X163.16Y-70.31
X163.16Y-85.55
X165.7Y-70.31
X165.7Y-85.525
X168.24Y-70.31
X168.24Y-85.55
X170.78Y-70.31
X170.78Y-85.55
T3
X114.186Y-104.369
X114.186Y-106.909
X114.186Y-109.449
X114.186Y-111.989
X114.186Y-114.529
X114.186Y-117.069
X114.186Y-119.609
X114.186Y-122.149
X114.186Y-124.689
X114.186Y-127.229
X114.186Y-129.769
X129.935Y-140.935
X132.475Y-140.935
X135.015Y-140.935
X137.555Y-140.935
X140.095Y-140.935
X142.635Y-140.935
X145.175Y-140.935
X147.715Y-140.935
X150.255Y-140.935
X152.795Y-140.935
X155.335Y-140.935
X177.75Y-102.67
X177.75Y-105.21
X177.75Y-107.75
X177.75Y-110.29
X177.75Y-112.83
X177.75Y-115.37
X177.75Y-117.91
X177.75Y-120.45
X177.75Y-122.99
X177.75Y-125.53
X177.75Y-128.07
T4
X126.276Y-104.369
X126.276Y-106.909
X126.276Y-109.449
X126.276Y-111.989
X126.276Y-114.529
X126.276Y-117.069
X126.276Y-119.609
X126.276Y-122.149
X126.276Y-124.689
X126.276Y-127.229
X126.276Y-129.769
X128.816Y-101.829
X128.816Y-104.369
X128.816Y-106.909
X128.816Y-109.449
X128.816Y-111.989
X128.816Y-114.529
X128.816Y-117.069
X128.816Y-119.609
X128.816Y-122.149
X128.816Y-124.689
X128.816Y-127.229
X128.816Y-129.769
X128.816Y-132.309
X131.356Y-101.829
X131.356Y-104.369
X131.356Y-129.769
X131.356Y-132.309
X133.896Y-101.829
X133.896Y-104.369
X133.896Y-129.769
X133.896Y-132.309
X136.436Y-101.829
X136.436Y-104.369
X136.436Y-129.769
X136.436Y-132.309
X138.976Y-101.829
X138.976Y-104.369
X138.976Y-129.769
X138.976Y-132.309
X141.516Y-101.829
X141.516Y-104.369
X141.516Y-129.769
X141.516Y-132.309
X144.056Y-101.829
X144.056Y-104.369
X144.056Y-129.769
X144.056Y-132.309
X146.596Y-101.829
X146.596Y-104.369
X146.596Y-129.769
X146.596Y-132.309
X149.136Y-101.829
X149.136Y-104.369
X149.136Y-129.769
X149.136Y-132.309
X151.676Y-101.829
X151.676Y-104.369
X151.676Y-129.769
X151.676Y-132.309
X154.216Y-101.829
X154.216Y-104.369
X154.216Y-106.909
X154.216Y-109.449
X154.216Y-111.989
X154.216Y-114.529
X154.216Y-117.069
X154.216Y-119.609
X154.216Y-122.149
X154.216Y-124.689
X154.216Y-127.229
X154.216Y-129.769
X154.216Y-132.309
X156.756Y-104.369
X156.756Y-106.909
X156.756Y-109.449
X156.756Y-111.989
X156.756Y-114.529
X156.756Y-117.069
X156.756Y-119.609
X156.756Y-122.149
X156.756Y-124.689
X156.756Y-127.229
X156.756Y-129.769
M30
