M48
METRIC
T1C0.300
T2C0.750
T3C0.760
T4C1.020
T5C1.100
%
G90
G05
T1
X73.751Y-138.97
X75.239Y-164.981
X76.1Y-132.46
X77.925Y-153.118
X78.626Y-149.439
X79.078Y-136.019
X79.244Y-141.276
X79.416Y-138.97
X81.111Y-159.119
X86.642Y-154.194
X86.75Y-142.943
X87.275Y-116.801
X87.758Y-157.371
X89.091Y-120.329
X89.834Y-162.05
X89.996Y-144.805
X90.168Y-156.755
X90.607Y-132.742
X91.837Y-152.759
X92.804Y-160.251
X92.854Y-135.724
X93.314Y-129.489
X93.397Y-156.932
X94.826Y-159.917
X95.79Y-158.686
X96.944Y-156.712
X97.929Y-117.102
X98.114Y-158.826
X99.498Y-138.378
X99.682Y-163.113
X102.735Y-125.81
X103.677Y-144.793
X103.957Y-143.808
X104.054Y-150.494
X105.125Y-141.474
X106.591Y-111.549
X107.13Y-154.304
X107.491Y-137.747
X108.628Y-142.305
X109.741Y-137.639
X110.099Y-114.128
X112.426Y-119.064
X112.489Y-113.139
X112.728Y-162.822
X113.032Y-115.425
X113.301Y-117.506
X114.368Y-133.409
X114.369Y-137.483
X115.54Y-114.75
X115.632Y-122.821
X116.314Y-116.723
X117.175Y-125.491
X117.412Y-136.778
X117.809Y-129.265
X118.075Y-138.58
X119.7Y-114.77
X120.358Y-155.758
X121.621Y-148.16
X124.029Y-121.968
X125.471Y-114.267
X129.008Y-157.037
X133.997Y-138.601
X134.314Y-137.719
X134.78Y-143.614
X135.153Y-157.672
X139.27Y-148.448
T2
X132.0Y-108.0
X132.0Y-110.54
X132.0Y-113.08
X132.0Y-115.62
X132.0Y-118.16
X132.0Y-120.7
X132.0Y-123.24
X132.0Y-125.78
X132.0Y-128.32
X132.0Y-130.86
X132.0Y-133.4
X132.0Y-135.94
X132.0Y-138.48
X132.0Y-141.02
X132.0Y-143.56
X132.0Y-146.1
X132.0Y-148.64
X132.0Y-151.18
X132.0Y-153.72
X132.0Y-156.26
X132.0Y-158.8
X132.0Y-163.88
X132.0Y-166.42
X132.025Y-161.34
X147.24Y-108.0
X147.24Y-110.54
X147.24Y-113.08
X147.24Y-115.62
X147.24Y-118.16
X147.24Y-120.7
X147.24Y-123.24
X147.24Y-125.78
X147.24Y-128.32
X147.24Y-130.86
X147.24Y-133.4
X147.24Y-135.94
X147.24Y-138.48
X147.24Y-141.02
X147.24Y-143.56
X147.24Y-146.1
X147.24Y-148.64
X147.24Y-151.18
X147.24Y-153.72
X147.24Y-156.26
X147.24Y-158.8
X147.24Y-161.34
X147.24Y-163.88
X147.24Y-166.42
T3
X74.0Y-125.0
X74.0Y-127.54
X74.0Y-130.08
X74.0Y-132.62
X74.0Y-135.16
X74.0Y-137.7
X74.0Y-140.24
X74.0Y-142.78
X74.0Y-145.32
X74.0Y-147.86
X86.0Y-109.0
X87.0Y-170.0
X88.54Y-109.0
X89.54Y-170.0
X91.08Y-109.0
X92.08Y-170.0
X93.62Y-109.0
X94.62Y-170.0
X96.16Y-109.0
X97.16Y-170.0
X98.7Y-109.0
X99.7Y-170.0
X101.24Y-109.0
X102.24Y-170.0
X103.78Y-109.0
X104.78Y-170.0
X106.32Y-109.0
X107.32Y-170.0
X108.86Y-109.0
X109.86Y-170.0
T4
X70.73Y-107.92
X70.73Y-110.46
X70.73Y-113.0
X70.73Y-115.54
X70.73Y-118.08
X73.27Y-107.92
X73.27Y-110.46
X73.27Y-113.0
X73.27Y-115.54
X73.27Y-118.08
X77.73Y-108.0
X80.27Y-108.0
X123.0Y-108.0
X123.0Y-110.54
X123.0Y-113.08
X123.0Y-115.62
X123.0Y-118.16
X123.0Y-120.7
X123.0Y-123.24
X123.0Y-125.78
X123.0Y-128.32
X123.0Y-130.86
X123.0Y-133.4
X123.0Y-135.94
X123.0Y-138.48
X123.0Y-141.02
X123.0Y-143.56
X123.0Y-146.1
X123.0Y-148.64
X123.0Y-151.18
X123.0Y-153.72
X123.0Y-156.26
X123.0Y-158.8
X123.0Y-161.34
X123.0Y-163.88
X123.0Y-166.42
X125.54Y-108.0
X125.54Y-110.54
X125.54Y-113.08
X125.54Y-115.62
X125.54Y-118.16
X125.54Y-120.7
X125.54Y-123.24
X125.54Y-125.78
X125.54Y-128.32
X125.54Y-130.86
X125.54Y-133.4
X125.54Y-135.94
X125.54Y-138.48
X125.54Y-141.02
X125.54Y-143.56
X125.54Y-146.1
X125.54Y-148.64
X125.54Y-151.18
X125.54Y-153.72
X125.54Y-156.26
X125.54Y-158.8
X125.54Y-161.34
X125.54Y-163.88
X125.54Y-166.42
X128.08Y-108.0
X128.08Y-110.54
X128.08Y-113.08
X128.08Y-115.62
X128.08Y-118.16
X128.08Y-120.7
X128.08Y-123.24
X128.08Y-125.78
X128.08Y-128.32
X128.08Y-130.86
X128.08Y-133.4
X128.08Y-135.94
X128.08Y-138.48
X128.08Y-141.02
X128.08Y-143.56
X128.08Y-146.1
X128.08Y-148.64
X128.08Y-151.18
X128.08Y-153.72
X128.08Y-156.26
X128.08Y-158.8
X128.08Y-161.34
X128.08Y-163.88
X128.08Y-166.42
X138.0Y-108.0
X138.0Y-110.54
X138.0Y-113.08
X138.0Y-115.62
X138.0Y-118.16
X138.0Y-120.7
X138.0Y-123.24
X138.0Y-125.78
X138.0Y-128.32
X138.0Y-130.86
X138.0Y-133.4
X138.0Y-135.94
X138.0Y-138.48
X138.0Y-141.02
X138.0Y-143.56
X138.0Y-146.1
X138.0Y-148.64
X138.0Y-151.18
X138.0Y-153.72
X138.0Y-156.26
X138.0Y-158.8
X138.0Y-161.34
X138.0Y-163.88
X138.0Y-166.42
X140.54Y-108.0
X140.54Y-110.54
X140.54Y-113.08
X140.54Y-115.62
X140.54Y-118.16
X140.54Y-120.7
X140.54Y-123.24
X140.54Y-125.78
X140.54Y-128.32
X140.54Y-130.86
X140.54Y-133.4
X140.54Y-135.94
X140.54Y-138.48
X140.54Y-141.02
X140.54Y-143.56
X140.54Y-146.1
X140.54Y-148.64
X140.54Y-151.18
X140.54Y-153.72
X140.54Y-156.26
X140.54Y-158.8
X140.54Y-161.34
X140.54Y-163.88
X140.54Y-166.42
X143.08Y-108.0
X143.08Y-110.54
X143.08Y-113.08
X143.08Y-115.62
X143.08Y-118.16
X143.08Y-120.7
X143.08Y-123.24
X143.08Y-125.78
X143.08Y-128.32
X143.08Y-130.86
X143.08Y-133.4
X143.08Y-135.94
X143.08Y-138.48
X143.08Y-141.02
X143.08Y-143.56
X143.08Y-146.1
X143.08Y-148.64
X143.08Y-151.18
X143.08Y-153.72
X143.08Y-156.26
X143.08Y-158.8
X143.08Y-161.34
X143.08Y-163.88
X143.08Y-166.42
T5
X82.56Y-123.82
X82.56Y-126.36
X82.56Y-128.9
X82.56Y-131.44
X82.56Y-133.98
X82.56Y-136.52
X82.56Y-139.06
X82.56Y-141.6
X82.56Y-144.14
X82.56Y-146.68
X82.56Y-149.22
X85.1Y-121.28
X85.1Y-123.82
X85.1Y-126.36
X85.1Y-128.9
X85.1Y-131.44
X85.1Y-133.98
X85.1Y-136.52
X85.1Y-139.06
X85.1Y-141.6
X85.1Y-144.14
X85.1Y-146.68
X85.1Y-149.22
X85.1Y-151.76
X87.64Y-121.28
X87.64Y-123.82
X87.64Y-149.22
X87.64Y-151.76
X90.18Y-121.28
X90.18Y-123.82
X90.18Y-149.22
X90.18Y-151.76
X92.72Y-121.28
X92.72Y-123.82
X92.72Y-149.22
X92.72Y-151.76
X95.26Y-121.28
X95.26Y-123.82
X95.26Y-149.22
X95.26Y-151.76
X97.8Y-121.28
X97.8Y-123.82
X97.8Y-149.22
X97.8Y-151.76
X100.34Y-121.28
X100.34Y-123.82
X100.34Y-149.22
X100.34Y-151.76
X102.88Y-121.28
X102.88Y-123.82
X102.88Y-149.22
X102.88Y-151.76
X105.42Y-121.28
X105.42Y-123.82
X105.42Y-149.22
X105.42Y-151.76
X107.96Y-121.28
X107.96Y-123.82
X107.96Y-149.22
X107.96Y-151.76
X110.5Y-121.28
X110.5Y-123.82
X110.5Y-126.36
X110.5Y-128.9
X110.5Y-131.44
X110.5Y-133.98
X110.5Y-136.52
X110.5Y-139.06
X110.5Y-141.6
X110.5Y-144.14
X110.5Y-146.68
X110.5Y-149.22
X110.5Y-151.76
X113.04Y-123.82
X113.04Y-126.36
X113.04Y-128.9
X113.04Y-131.44
X113.04Y-133.98
X113.04Y-136.52
X113.04Y-139.06
X113.04Y-141.6
X113.04Y-144.14
X113.04Y-146.68
X113.04Y-149.22
M30
