%TF.GenerationSoftware,KiCad,Pcbnew,9.0.8*%
%TF.CreationDate,2026-03-24T13:32:18+00:00*%
%TF.ProjectId,EPM7128 Adapter,45504d37-3132-4382-9041-646170746572,1.1*%
%TF.SameCoordinates,Original*%
%TF.FileFunction,Soldermask,Top*%
%TF.FilePolarity,Negative*%
%FSLAX46Y46*%
G04 Gerber Fmt 4.6, Leading zero omitted, Abs format (unit mm)*
G04 Created by KiCad (PCBNEW 9.0.8) date 2026-03-24 13:32:18*
%MOMM*%
%LPD*%
G01*
G04 APERTURE LIST*
G04 Aperture macros list*
%AMFreePoly0*
4,1,17,0.297406,0.654501,0.654501,0.297406,0.673100,0.252505,0.673100,-0.252505,0.654501,-0.297406,0.297406,-0.654501,0.252505,-0.673100,-0.252505,-0.673100,-0.297406,-0.654501,-0.654501,-0.297406,-0.673100,-0.252505,-0.673100,0.252505,-0.654501,0.297406,-0.297406,0.654501,-0.252505,0.673100,0.252505,0.673100,0.297406,0.654501,0.297406,0.654501,$1*%
G04 Aperture macros list end*
%ADD10C,3.200000*%
%ADD11R,1.600000X1.600000*%
%ADD12C,1.600000*%
%ADD13C,1.346200*%
%ADD14FreePoly0,0.000000*%
%ADD15R,1.150000X1.150000*%
%ADD16C,1.150000*%
G04 APERTURE END LIST*
D10*
%TO.C,UNK_HOLE_3*%
X137706100Y-120878600D03*
%TD*%
%TO.C,UNK_HOLE_1*%
X145326100Y-113258600D03*
%TD*%
D11*
%TO.C,RA3*%
X177750000Y-128070000D03*
D12*
X177750000Y-125530000D03*
X177750000Y-122990000D03*
X177750000Y-120450000D03*
X177750000Y-117910000D03*
X177750000Y-115370000D03*
X177750000Y-112830000D03*
X177750000Y-110290000D03*
X177750000Y-107750000D03*
X177750000Y-105210000D03*
X177750000Y-102670000D03*
%TD*%
D10*
%TO.C,UNK_HOLE_0*%
X137706100Y-113258600D03*
%TD*%
D11*
%TO.C,RA1*%
X114185700Y-129768600D03*
D12*
X114185700Y-127228600D03*
X114185700Y-124688600D03*
X114185700Y-122148600D03*
X114185700Y-119608600D03*
X114185700Y-117068600D03*
X114185700Y-114528600D03*
X114185700Y-111988600D03*
X114185700Y-109448600D03*
X114185700Y-106908600D03*
X114185700Y-104368600D03*
%TD*%
D13*
%TO.C,PLCC84*%
X141516100Y-101828600D03*
D14*
X141516100Y-104368600D03*
X138976100Y-101828600D03*
X138976100Y-104368600D03*
X136436100Y-101828600D03*
X136436100Y-104368600D03*
X133896100Y-101828600D03*
X133896100Y-104368600D03*
X131356100Y-101828600D03*
X131356100Y-104368600D03*
X128816100Y-101828600D03*
X126276100Y-104368600D03*
X128816100Y-104368600D03*
X126276100Y-106908600D03*
X128816100Y-106908600D03*
X126276100Y-109448600D03*
X128816100Y-109448600D03*
X126276100Y-111988600D03*
X128816100Y-111988600D03*
X126276100Y-114528600D03*
X128816100Y-114528600D03*
X126276100Y-117068600D03*
X128816100Y-117068600D03*
X126276100Y-119608600D03*
X128816100Y-119608600D03*
X126276100Y-122148600D03*
X128816100Y-122148600D03*
X126276100Y-124688600D03*
X128816100Y-124688600D03*
X126276100Y-127228600D03*
X128816100Y-127228600D03*
X126276100Y-129768600D03*
X128816100Y-132308600D03*
X128816100Y-129768600D03*
X131356100Y-132308600D03*
X131356100Y-129768600D03*
X133896100Y-132308600D03*
X133896100Y-129768600D03*
X136436100Y-132308600D03*
X136436100Y-129768600D03*
X138976100Y-132308600D03*
X138976100Y-129768600D03*
X141516100Y-132308600D03*
X141516100Y-129768600D03*
X144056100Y-132308600D03*
X144056100Y-129768600D03*
X146596100Y-132308600D03*
X146596100Y-129768600D03*
X149136100Y-132308600D03*
X149136100Y-129768600D03*
X151676100Y-132308600D03*
X151676100Y-129768600D03*
X154216100Y-132308600D03*
X156756100Y-129768600D03*
X154216100Y-129768600D03*
X156756100Y-127228600D03*
X154216100Y-127228600D03*
X156756100Y-124688600D03*
X154216100Y-124688600D03*
X156756100Y-122148600D03*
X154216100Y-122148600D03*
X156756100Y-119608600D03*
X154216100Y-119608600D03*
X156756100Y-117068600D03*
X154216100Y-117068600D03*
X156756100Y-114528600D03*
X154216100Y-114528600D03*
X156756100Y-111988600D03*
X154216100Y-111988600D03*
X156756100Y-109448600D03*
X154216100Y-109448600D03*
X156756100Y-106908600D03*
X154216100Y-106908600D03*
X156756100Y-104368600D03*
X154216100Y-101828600D03*
X154216100Y-104368600D03*
X151676100Y-101828600D03*
X151676100Y-104368600D03*
X149136100Y-101828600D03*
X149136100Y-104368600D03*
X146596100Y-101828600D03*
X146596100Y-104368600D03*
X144056100Y-101828600D03*
X144056100Y-104368600D03*
%TD*%
D15*
%TO.C,DATAMAN0*%
X112360000Y-85550000D03*
D16*
X114900000Y-85550000D03*
X117440000Y-85550000D03*
X119980000Y-85550000D03*
X122520000Y-85550000D03*
X125060000Y-85550000D03*
X127600000Y-85550000D03*
X130140000Y-85550000D03*
X132680000Y-85550000D03*
X135220000Y-85550000D03*
X137760000Y-85550000D03*
X140300000Y-85550000D03*
X142840000Y-85550000D03*
X145380000Y-85550000D03*
X147920000Y-85550000D03*
X150460000Y-85550000D03*
X153000000Y-85550000D03*
X155540000Y-85550000D03*
X158080000Y-85550000D03*
X160620000Y-85550000D03*
X163160000Y-85550000D03*
X165700000Y-85525000D03*
X168240000Y-85550000D03*
X170780000Y-85550000D03*
X170780000Y-70310000D03*
X168240000Y-70310000D03*
X165700000Y-70310000D03*
X163160000Y-70310000D03*
X160620000Y-70310000D03*
X158080000Y-70310000D03*
X155540000Y-70310000D03*
X153000000Y-70310000D03*
X150460000Y-70310000D03*
X147920000Y-70310000D03*
X145380000Y-70310000D03*
X142840000Y-70310000D03*
X140300000Y-70310000D03*
X137760000Y-70310000D03*
X135220000Y-70310000D03*
X132680000Y-70310000D03*
X130140000Y-70310000D03*
X127600000Y-70310000D03*
X125060000Y-70310000D03*
X122520000Y-70310000D03*
X119980000Y-70310000D03*
X117440000Y-70310000D03*
X114900000Y-70310000D03*
X112360000Y-70310000D03*
%TD*%
D10*
%TO.C,UNK_HOLE_2*%
X145326100Y-120878600D03*
%TD*%
D11*
%TO.C,RA2*%
X129935000Y-140935000D03*
D12*
X132475000Y-140935000D03*
X135015000Y-140935000D03*
X137555000Y-140935000D03*
X140095000Y-140935000D03*
X142635000Y-140935000D03*
X145175000Y-140935000D03*
X147715000Y-140935000D03*
X150255000Y-140935000D03*
X152795000Y-140935000D03*
X155335000Y-140935000D03*
%TD*%
M02*
